<?xml version="1.0" encoding="UTF-8" standalone="no"?>
<!-- Generator: Adobe Illustrator 12.0.0, SVG Export Plug-In . SVG Version: 6.00 Build 51448)  -->

<svg
   xmlns:dc="http://purl.org/dc/elements/1.1/"
   xmlns:cc="http://creativecommons.org/ns#"
   xmlns:rdf="http://www.w3.org/1999/02/22-rdf-syntax-ns#"
   xmlns:svg="http://www.w3.org/2000/svg"
   xmlns="http://www.w3.org/2000/svg"
   xmlns:sodipodi="http://sodipodi.sourceforge.net/DTD/sodipodi-0.dtd"
   xmlns:inkscape="http://www.inkscape.org/namespaces/inkscape"
   version="1.1"
   id="Layer_1"
   width="100"
   height="100"
   viewBox="0 0 100 99.999999"
   overflow="visible"
   enable-background="new 0 0 280.22 69.387"
   xml:space="preserve"
   inkscape:version="0.91 r13725"
   sodipodi:docname="gstreamer-logo-5.svg"
   style="overflow:visible"><metadata
     id="metadata3365"><rdf:RDF><cc:Work
         rdf:about=""><dc:format>image/svg+xml</dc:format><dc:type
           rdf:resource="http://purl.org/dc/dcmitype/StillImage" /><dc:title></dc:title></cc:Work></rdf:RDF></metadata><defs
     id="defs3363" /><sodipodi:namedview
     pagecolor="#ffffff"
     bordercolor="#666666"
     borderopacity="1"
     objecttolerance="10"
     gridtolerance="10"
     guidetolerance="10"
     inkscape:pageopacity="0"
     inkscape:pageshadow="2"
     inkscape:window-width="1366"
     inkscape:window-height="704"
     id="namedview3361"
     showgrid="false"
     inkscape:zoom="4"
     inkscape:cx="47.543353"
     inkscape:cy="50.202349"
     inkscape:window-x="0"
     inkscape:window-y="27"
     inkscape:window-maximized="1"
     inkscape:current-layer="Layer_1" /><path
     d="m 49.141,11.311999 c -5.409,0 -13.323,-4.407 -21.036,-4.407 -7.713,0 -12.32,4.407 -13.122,5.008 -0.801,0.601 -1.303,2.904 1.102,2.203 2.405,-0.701 4.407,-0.701 8.214,-0.701 3.807,0 12.922,5.209 22.138,5.209 9.216,0 16.928,-7.111 18.631,-9.616 1.703,-2.505 0.1,-3.306 -1.202,-2.704 -1.303,0.601 -9.716,5.008 -14.725,5.008 z"
     id="path3355"
     inkscape:connector-curvature="0"
     style="fill:#ff3131" /><path
     d="m 72.639,25.033999 c -5.683,0 -13.997,-4.406 -22.1,-4.406 -8.103,0 -12.944,4.406 -13.786,5.008 -0.842,0.602 -1.369,2.904 1.157,2.203 2.526,-0.701 4.63,-0.701 8.629,-0.701 3.999,0 13.576,5.209 23.257,5.209 9.681,0 17.785,-7.111 19.574,-9.615 1.789,-2.505 0.105,-3.307 -1.263,-2.705 -1.368,0.602 -10.206,5.007 -15.468,5.007 z"
     id="path3357"
     inkscape:connector-curvature="0"
     style="fill:#319831" /><path
     d="m 39.936,40.175999 c -5.893,0 -14.515,-4.761 -22.918,-4.761 -8.403,0 -13.424,4.761 -14.297,5.41 -0.873,0.649 -1.419,3.137 1.2,2.379 2.62,-0.757 4.802,-0.757 8.949,-0.757 4.147,0 14.079,5.626 24.12,5.626 10.04,0 18.443,-7.681 20.299,-10.386 1.856,-2.705 0.109,-3.57 -1.31,-2.921 -1.419,0.649 -10.586,5.41 -16.043,5.41 z"
     id="path3359"
     inkscape:connector-curvature="0"
     style="fill:#3232cc" /><text
     xml:space="preserve"
     style="font-style:italic;font-variant:normal;font-weight:bold;font-stretch:normal;font-size:70px;line-height:125%;font-family:Optima;-inkscape-font-specification:'Optima Bold Italic';letter-spacing:0px;word-spacing:0px;fill:#000000;fill-opacity:1;stroke:none;stroke-width:1px;stroke-linecap:butt;stroke-linejoin:miter;stroke-opacity:1"
     x="48.124519"
     y="90.172836"
     id="text3375"
     sodipodi:linespacing="125%"><tspan
       sodipodi:role="line"
       id="tspan3377"
       x="48.124519"
       y="90.172836">5</tspan></text>
</svg>