<?xml version="1.0" encoding="UTF-8" standalone="no"?>
<!-- Created with Inkscape (http://www.inkscape.org/) -->
<svg
   xmlns:dc="http://purl.org/dc/elements/1.1/"
   xmlns:cc="http://creativecommons.org/ns#"
   xmlns:rdf="http://www.w3.org/1999/02/22-rdf-syntax-ns#"
   xmlns:svg="http://www.w3.org/2000/svg"
   xmlns="http://www.w3.org/2000/svg"
   xmlns:xlink="http://www.w3.org/1999/xlink"
   xmlns:sodipodi="http://sodipodi.sourceforge.net/DTD/sodipodi-0.dtd"
   xmlns:inkscape="http://www.inkscape.org/namespaces/inkscape"
   width="297mm"
   height="210mm"
   id="svg2482"
   sodipodi:version="0.32"
   inkscape:version="0.46"
   sodipodi:docname="acces_interdit_access_forbidden.svg"
   inkscape:output_extension="org.inkscape.output.svg.inkscape"
   version="1.0"
   style="display:inline"
   inkscape:export-filename="/Users/imic/desktop/rvert_green.png"
   inkscape:export-xdpi="144"
   inkscape:export-ydpi="144">
  <sodipodi:namedview
     inkscape:document-units="mm"
     pagecolor="#ffffff"
     bordercolor="#666666"
     borderopacity="1.0"
     inkscape:pageopacity="0.0"
     inkscape:pageshadow="2"
     inkscape:zoom="0.82"
     inkscape:cx="523.62235"
     inkscape:cy="381.0613"
     inkscape:current-layer="layer6"
     id="namedview2486"
     showgrid="false"
     inkscape:window-width="1447"
     inkscape:window-height="973"
     inkscape:window-x="35"
     inkscape:window-y="46" />
  <defs
     id="defs2484">
    <linearGradient
       inkscape:collect="always"
       id="linearGradient3384">
      <stop
         style="stop-color:#550000;stop-opacity:1"
         offset="0"
         id="stop3386" />
      <stop
         style="stop-color:#ff5555;stop-opacity:1"
         offset="1"
         id="stop3388" />
    </linearGradient>
    <linearGradient
       inkscape:collect="always"
       id="linearGradient3375">
      <stop
         style="stop-color:#550000;stop-opacity:1"
         offset="0"
         id="stop3377" />
      <stop
         style="stop-color:#800000;stop-opacity:1"
         offset="1"
         id="stop3379" />
    </linearGradient>
    <linearGradient
       inkscape:collect="always"
       id="linearGradient3365">
      <stop
         style="stop-color:#2b0000;stop-opacity:1"
         offset="0"
         id="stop3367" />
      <stop
         style="stop-color:#aa0000;stop-opacity:1"
         offset="1"
         id="stop3369" />
    </linearGradient>
    <linearGradient
       inkscape:collect="always"
       id="linearGradient3357">
      <stop
         style="stop-color:#800000;stop-opacity:1;"
         offset="0"
         id="stop3359" />
      <stop
         style="stop-color:#ffaaaa;stop-opacity:1"
         offset="1"
         id="stop3361" />
    </linearGradient>
    <linearGradient
       inkscape:collect="always"
       id="linearGradient3328">
      <stop
         style="stop-color:#005500;stop-opacity:1;"
         offset="0"
         id="stop3330" />
      <stop
         style="stop-color:#33f24c;stop-opacity:1"
         offset="1"
         id="stop3332" />
    </linearGradient>
    <linearGradient
       inkscape:collect="always"
       id="linearGradient3320">
      <stop
         style="stop-color:#002b00;stop-opacity:1"
         offset="0"
         id="stop3322" />
      <stop
         style="stop-color:#00aa00;stop-opacity:1"
         offset="1"
         id="stop3324" />
    </linearGradient>
    <linearGradient
       id="linearGradient3677"
       inkscape:collect="always">
      <stop
         id="stop3679"
         offset="0"
         style="stop-color:#373748;stop-opacity:1;" />
      <stop
         id="stop3681"
         offset="1"
         style="stop-color:#373748;stop-opacity:0;" />
    </linearGradient>
    <linearGradient
       id="linearGradient3252">
      <stop
         style="stop-color:#002237;stop-opacity:1;"
         offset="0"
         id="stop3254" />
      <stop
         style="stop-color:#000000;stop-opacity:0;"
         offset="1"
         id="stop3256" />
    </linearGradient>
    <linearGradient
       inkscape:collect="always"
       id="linearGradient3368">
      <stop
         style="stop-color:#000000;stop-opacity:1;"
         offset="0"
         id="stop3370" />
      <stop
         style="stop-color:#000000;stop-opacity:0;"
         offset="1"
         id="stop3372" />
    </linearGradient>
    <linearGradient
       inkscape:collect="always"
       id="linearGradient3339">
      <stop
         style="stop-color:#002255;stop-opacity:1;"
         offset="0"
         id="stop3341" />
      <stop
         style="stop-color:#002255;stop-opacity:0;"
         offset="1"
         id="stop3343" />
    </linearGradient>
    <linearGradient
       id="linearGradient3325">
      <stop
         style="stop-color:#002255;stop-opacity:1;"
         offset="0"
         id="stop3327" />
      <stop
         style="stop-color:#4e637a;stop-opacity:1;"
         offset="1"
         id="stop3329" />
    </linearGradient>
    <linearGradient
       inkscape:collect="always"
       id="linearGradient3276">
      <stop
         style="stop-color:#d5e5ff;stop-opacity:1;"
         offset="0"
         id="stop3278" />
      <stop
         style="stop-color:#d5e5ff;stop-opacity:0;"
         offset="1"
         id="stop3280" />
    </linearGradient>
    <linearGradient
       id="linearGradient3268">
      <stop
         style="stop-color:#373e48;stop-opacity:1;"
         offset="0"
         id="stop3270" />
      <stop
         style="stop-color:#373e48;stop-opacity:0.74626863;"
         offset="1"
         id="stop3272" />
    </linearGradient>
    <linearGradient
       inkscape:collect="always"
       id="linearGradient3260">
      <stop
         style="stop-color:#ffffff;stop-opacity:1;"
         offset="0"
         id="stop3262" />
      <stop
         style="stop-color:#ffffff;stop-opacity:0;"
         offset="1"
         id="stop3264" />
    </linearGradient>
    <linearGradient
       id="linearGradient3217">
      <stop
         style="stop-color:#2c5aa0;stop-opacity:1;"
         offset="0"
         id="stop3219" />
      <stop
         style="stop-color:#39637a;stop-opacity:1;"
         offset="1"
         id="stop3221" />
    </linearGradient>
    <linearGradient
       id="linearGradient3199">
      <stop
         style="stop-color:#003380;stop-opacity:1;"
         offset="0"
         id="stop3201" />
      <stop
         style="stop-color:#6783a4;stop-opacity:1;"
         offset="1"
         id="stop3203" />
    </linearGradient>
    <linearGradient
       inkscape:collect="always"
       id="linearGradient3449">
      <stop
         style="stop-color:#000000;stop-opacity:1;"
         offset="0"
         id="stop3451" />
      <stop
         style="stop-color:#000000;stop-opacity:0;"
         offset="1"
         id="stop3453" />
    </linearGradient>
    <linearGradient
       inkscape:collect="always"
       id="linearGradient3433">
      <stop
         style="stop-color:#aa0000;stop-opacity:1;"
         offset="0"
         id="stop3435" />
      <stop
         style="stop-color:#aa0000;stop-opacity:0;"
         offset="1"
         id="stop3437" />
    </linearGradient>
    <linearGradient
       inkscape:collect="always"
       id="linearGradient3425">
      <stop
         style="stop-color:#ffaaaa;stop-opacity:1;"
         offset="0"
         id="stop3427" />
      <stop
         style="stop-color:#ffaaaa;stop-opacity:0;"
         offset="1"
         id="stop3429" />
    </linearGradient>
    <linearGradient
       inkscape:collect="always"
       id="linearGradient3391">
      <stop
         style="stop-color:#ff8080;stop-opacity:1;"
         offset="0"
         id="stop3393" />
      <stop
         style="stop-color:#ff8080;stop-opacity:0;"
         offset="1"
         id="stop3395" />
    </linearGradient>
    <linearGradient
       inkscape:collect="always"
       id="linearGradient3383">
      <stop
         style="stop-color:#aa0000;stop-opacity:1;"
         offset="0"
         id="stop3385" />
      <stop
         style="stop-color:#aa0000;stop-opacity:0;"
         offset="1"
         id="stop3387" />
    </linearGradient>
    <inkscape:perspective
       sodipodi:type="inkscape:persp3d"
       inkscape:vp_x="0 : 372.04724 : 1"
       inkscape:vp_y="0 : 1000 : 0"
       inkscape:vp_z="1052.3622 : 372.04724 : 1"
       inkscape:persp3d-origin="526.18109 : 248.03149 : 1"
       id="perspective2491" />
    <radialGradient
       inkscape:collect="always"
       xlink:href="#linearGradient3383"
       id="radialGradient3389"
       cx="760.44836"
       cy="495.57962"
       fx="760.44836"
       fy="495.57962"
       r="290.55002"
       gradientTransform="matrix(-9.2315249e-3,-1.6567775,1.7259546,-9.6170109e-3,-186.23057,1798.1152)"
       gradientUnits="userSpaceOnUse" />
    <radialGradient
       inkscape:collect="always"
       xlink:href="#linearGradient3391"
       id="radialGradient3397"
       cx="510.63492"
       cy="518.68848"
       fx="510.63492"
       fy="518.68848"
       r="309.09372"
       gradientTransform="matrix(7.1452234e-2,1.213969,-1.3707455,8.0679828e-2,1034.03,-441.76903)"
       gradientUnits="userSpaceOnUse" />
    <linearGradient
       inkscape:collect="always"
       xlink:href="#linearGradient3425"
       id="linearGradient3431"
       x1="598.30402"
       y1="264.64075"
       x2="1028.7482"
       y2="692.64081"
       gradientUnits="userSpaceOnUse"
       gradientTransform="translate(-168,6)" />
    <linearGradient
       inkscape:collect="always"
       xlink:href="#linearGradient3433"
       id="linearGradient3439"
       x1="777.63275"
       y1="445.97461"
       x2="257.41934"
       y2="-82.025352"
       gradientUnits="userSpaceOnUse"
       gradientTransform="translate(-168,6)" />
    <radialGradient
       inkscape:collect="always"
       xlink:href="#linearGradient3449"
       id="radialGradient3455"
       cx="358"
       cy="694.76117"
       fx="358"
       fy="694.76117"
       r="283.33334"
       gradientTransform="matrix(1,0,0,0.1192157,0,611.93474)"
       gradientUnits="userSpaceOnUse" />
    <radialGradient
       inkscape:collect="always"
       xlink:href="#linearGradient3199"
       id="radialGradient3205"
       cx="525.32587"
       cy="319.00595"
       fx="525.32587"
       fy="319.00595"
       r="304.2782"
       gradientTransform="matrix(2.3429294e-2,-1.7424669,1.9525204,2.6253686e-2,-219.32163,1163.2898)"
       gradientUnits="userSpaceOnUse" />
    <radialGradient
       inkscape:collect="always"
       xlink:href="#linearGradient3217"
       id="radialGradient3223"
       cx="1044.0062"
       cy="-40.152016"
       fx="1044.0062"
       fy="-40.152016"
       r="320.2782"
       gradientTransform="matrix(1.0995385e-2,-1.5924482,1.7918687,1.2372322e-2,716.32,2165.3247)"
       gradientUnits="userSpaceOnUse" />
    <linearGradient
       inkscape:collect="always"
       xlink:href="#linearGradient3260"
       id="linearGradient3266"
       x1="319.3125"
       y1="361.51562"
       x2="746"
       y2="361.51562"
       gradientUnits="userSpaceOnUse" />
    <linearGradient
       inkscape:collect="always"
       xlink:href="#linearGradient3276"
       id="linearGradient3282"
       x1="649.3125"
       y1="361.51562"
       x2="320"
       y2="361.51562"
       gradientUnits="userSpaceOnUse"
       gradientTransform="matrix(1.0492514,0,0,1,-45.13558,4)" />
    <linearGradient
       inkscape:collect="always"
       xlink:href="#linearGradient3276"
       id="linearGradient3286"
       gradientUnits="userSpaceOnUse"
       gradientTransform="matrix(0.9373164,0,0,0.8858744,13.26347,43.25818)"
       x1="410.33237"
       y1="361.51562"
       x2="704.0752"
       y2="361.51562" />
    <linearGradient
       inkscape:collect="always"
       xlink:href="#linearGradient3276"
       id="linearGradient3292"
       gradientUnits="userSpaceOnUse"
       gradientTransform="matrix(1.0492514,0,0,1,-45.13558,4)"
       x1="649.3125"
       y1="361.51562"
       x2="320"
       y2="361.51562" />
    <linearGradient
       inkscape:collect="always"
       xlink:href="#linearGradient3276"
       id="linearGradient3294"
       gradientUnits="userSpaceOnUse"
       gradientTransform="matrix(0.9373164,0,0,0.8858744,13.26347,43.25818)"
       x1="410.33237"
       y1="361.51562"
       x2="704.0752"
       y2="361.51562" />
    <linearGradient
       inkscape:collect="always"
       xlink:href="#linearGradient3276"
       id="linearGradient3311"
       gradientUnits="userSpaceOnUse"
       gradientTransform="matrix(1.0492514,0,0,1,-45.13558,4)"
       x1="649.3125"
       y1="361.51562"
       x2="320"
       y2="361.51562" />
    <linearGradient
       inkscape:collect="always"
       xlink:href="#linearGradient3276"
       id="linearGradient3313"
       gradientUnits="userSpaceOnUse"
       gradientTransform="matrix(0.9373164,0,0,0.8858744,13.26347,43.25818)"
       x1="410.33237"
       y1="361.51562"
       x2="704.0752"
       y2="361.51562" />
    <linearGradient
       inkscape:collect="always"
       xlink:href="#linearGradient3325"
       id="linearGradient3333"
       x1="282.93491"
       y1="148.09154"
       x2="646.07098"
       y2="526.20361"
       gradientUnits="userSpaceOnUse" />
    <linearGradient
       inkscape:collect="always"
       xlink:href="#linearGradient3325"
       id="linearGradient3337"
       gradientUnits="userSpaceOnUse"
       x1="495.4201"
       y1="393.21246"
       x2="258.20117"
       y2="119.40717" />
    <linearGradient
       inkscape:collect="always"
       xlink:href="#linearGradient3339"
       id="linearGradient3345"
       x1="655.57385"
       y1="546.302"
       x2="364.13025"
       y2="176.30197"
       gradientUnits="userSpaceOnUse" />
    <linearGradient
       inkscape:collect="always"
       xlink:href="#linearGradient3276"
       id="linearGradient3364"
       gradientUnits="userSpaceOnUse"
       gradientTransform="matrix(1.0492514,0,0,1,-45.13558,4)"
       x1="649.3125"
       y1="361.51562"
       x2="320"
       y2="361.51562" />
    <linearGradient
       inkscape:collect="always"
       xlink:href="#linearGradient3276"
       id="linearGradient3366"
       gradientUnits="userSpaceOnUse"
       gradientTransform="matrix(0.9373164,0,0,0.8858744,13.26347,43.25818)"
       x1="410.33237"
       y1="361.51562"
       x2="704.0752"
       y2="361.51562" />
    <radialGradient
       inkscape:collect="always"
       xlink:href="#linearGradient3368"
       id="radialGradient3374"
       cx="358"
       cy="694.76117"
       fx="358"
       fy="694.76117"
       r="283.33334"
       gradientTransform="matrix(1.0000001,-1.5302823e-7,3.2208756e-8,6.7616052e-2,-5.1200116e-5,647.78419)"
       gradientUnits="userSpaceOnUse" />
    <linearGradient
       inkscape:collect="always"
       xlink:href="#linearGradient3252"
       id="linearGradient3261"
       x1="369.625"
       y1="411.5625"
       x2="1051.7812"
       y2="411.5625"
       gradientUnits="userSpaceOnUse" />
    <clipPath
       id="clipPath">
      <path
         style="font-size:50.34442520000000343px;font-style:normal;font-variant:normal;font-weight:bold;font-stretch:normal;text-align:start;line-height:125%;writing-mode:lr-tb;text-anchor:start;fill:url(#linearGradient3261);fill-opacity:1;stroke:#578194;stroke-width:3.54330709;stroke-linecap:round;stroke-linejoin:miter;stroke-opacity:1;display:inline;font-family:Arial Black;-inkscape-font-specification:Arial Black Bold;stroke-miterlimit:4;stroke-dasharray:none"
         d="M 219.34375 195.09375 L 213.625 212.34375 C 242.77568 224.47596 252.51094 231.48863 261.65625 242.34375 C 294.23641 317.05258 397.69629 585.88781 414.84375 628.03125 L 421.6875 628.03125 C 436.54861 614.62199 454.25587 585.88421 465.6875 564.8125 C 481.01645 528.02632 498.0517 487.4427 520.125 440.59375 L 499.90625 422.8125 C 482.87352 462.86023 472.38463 488.98917 458.84375 517.5625 L 457.125 517.5625 C 377.67513 312.59216 359.96289 264.70391 348.53125 231.5 L 362.25 212.96875 L 365.09375 195.75 C 343.94521 195.75 323.38545 195.75 301.09375 195.75 C 273.65782 195.75 246.2081 195.09375 219.34375 195.09375 z M 682.34375 195.09375 C 662.90995 195.09376 643.46503 195.75 624.03125 195.75 C 615.4575 195.75 606.87715 195.75 598.875 195.75 L 597.75 198.28125 L 596.03125 232.125 C 586.9233 257.86143 578.7264 275.42615 563.625 310.625 L 583.5625 330.71875 C 606.83436 281.81804 620.454 257.15543 627.46875 244.28125 C 639.47199 232.14905 654.33731 223.83741 678.34375 212.34375 L 682.34375 195.09375 z M 817.78125 195.09375 C 796.06114 195.09376 773.79169 195.75 751.5 195.75 C 740.06839 195.75 728.61913 195.75 717.1875 195.75 L 712.0625 212.96875 L 728.625 235.96875 C 710.26922 295.20824 688.95273 361.22495 670.0625 417.8125 L 690.3125 438.21875 C 723.04042 348.38484 753.09054 270.20013 764.0625 248.75 C 777.2089 232.78657 788.64073 223.83741 813.21875 212.34375 L 817.78125 195.09375 z M 449.375 195.59375 L 551.84375 298.78125 C 534.38653 255.31949 529.21589 242.49723 525.71875 230.21875 L 522.84375 198.28125 L 522.28125 195.75 C 506.27697 195.75 489.14745 195.75 472 195.75 C 464.4629 195.75 456.91211 195.68336 449.375 195.59375 z M 523.21875 443.3125 C 554.75222 519.02812 587.03001 603.521 597.15625 628.03125 L 604.03125 628.03125 C 617.17766 613.34491 635.47061 585.88421 645.1875 564.8125 C 646.4482 561.19593 647.72507 557.51715 649 553.875 L 523.21875 443.3125 z "
         id="text2471" />
    </clipPath>
    <filter
       id="filter"
       height="2.0"
       width="2.0"
       x="-0.5"
       y="-0.5">
      <feGaussianBlur
         stdDeviation="5.0"
         id="feGaussianBlur3340" />
    </filter>
    <linearGradient
       gradientUnits="userSpaceOnUse"
       y2="504.92188"
       x2="908.2121"
       y1="504.92188"
       x1="828.64062"
       id="linearGradient3683"
       xlink:href="#linearGradient3677"
       inkscape:collect="always" />
    <linearGradient
       gradientUnits="userSpaceOnUse"
       y2="502.32812"
       x2="664.29895"
       y1="502.32812"
       x1="577.25"
       id="linearGradient3685"
       xlink:href="#linearGradient3677"
       inkscape:collect="always" />
    <linearGradient
       gradientUnits="userSpaceOnUse"
       y2="239.875"
       x2="953.31488"
       y1="239.875"
       x1="636.39722"
       id="linearGradient3687"
       xlink:href="#linearGradient3677"
       inkscape:collect="always" />
    <linearGradient
       gradientUnits="userSpaceOnUse"
       y2="338.3125"
       x2="801.70587"
       y1="338.3125"
       x1="252.39258"
       id="linearGradient3689"
       xlink:href="#linearGradient3677"
       inkscape:collect="always" />
    <clipPath
       id="clipPathr">
      <path
         id="path3597"
         d="M 862.28125 430.59375 C 862.01445 432.59675 861.80575 434.65245 861.5 436.625 C 860.77119 441.32697 859.93823 445.93927 859 450.46875 C 858.06177 454.99823 857.03716 459.45477 855.90625 463.8125 C 854.77534 468.17023 853.55682 472.43829 852.25 476.625 C 850.94318 480.81171 849.52849 484.92106 848.0625 488.9375 C 846.59651 492.95394 845.07715 496.87184 843.46875 500.71875 C 841.86035 504.56566 840.17155 508.32188 838.4375 512 C 836.70345 515.67812 834.90546 519.27119 833.0625 522.78125 C 829.37659 529.80138 825.48975 536.4914 821.46875 542.84375 C 817.44775 549.1961 813.3158 555.21576 809.09375 560.90625 C 804.8717 566.59674 800.57031 571.96545 796.28125 577 C 795.5995 577.80025 794.93148 578.46624 794.25 579.25 C 833.12369 555.30095 863.03125 514.36622 863.03125 448.375 C 863.03125 442.39928 862.80215 436.47618 862.28125 430.59375 z "
         style="font-size:50.34442520000000343px;font-style:normal;font-variant:normal;font-weight:bold;font-stretch:normal;text-align:start;line-height:125%;writing-mode:lr-tb;text-anchor:start;fill:url(#linearGradient3683);fill-opacity:1;stroke:#5781b8;stroke-width:1px;stroke-linecap:butt;stroke-linejoin:miter;stroke-opacity:1;display:inline;font-family:Arial Black;-inkscape-font-specification:Arial Black Bold" />
    </clipPath>
    <filter
       y="-0.5"
       x="-0.5"
       width="2.0"
       height="2.0"
       id="filterN">
      <feGaussianBlur
         id="feGaussianBlur3772"
         stdDeviation="5.0" />
    </filter>
    <clipPath
       id="clipPathl">
      <path
         id="text2467"
         d="M 831.0625 64.6875 C 810.66955 72.438692 788.2667 81.748789 778.75 89.5 C 765.15471 77.873192 738.62838 68.5625 708.71875 68.5625 L 708.03125 68.5625 C 608.78567 68.562503 553.74226 140.66267 553.0625 220.5 C 553.0625 280.1842 577.51025 318.93885 625.09375 350.71875 C 659.76174 373.97234 688.33173 391.02767 725.71875 414.28125 C 726.11919 414.52807 726.4784 414.81212 726.875 415.0625 C 727.45844 412.82781 728.07243 410.82545 728.625 408.46875 C 730.01874 402.52448 731.29412 396.2129 732.34375 389.625 C 733.39338 383.0371 734.22481 376.16662 734.71875 369.125 C 734.96572 365.60419 735.11913 362.03613 735.1875 358.4375 C 735.25587 354.83887 735.23043 351.21521 735.09375 347.5625 C 734.95707 343.90979 734.71193 340.24554 734.34375 336.5625 C 733.97557 332.87946 733.50112 329.15839 732.875 325.46875 C 732.24888 321.77911 731.47302 318.10999 730.5625 314.4375 C 729.65198 310.76501 728.59636 307.10036 727.375 303.46875 C 726.15364 299.83714 724.7774 296.22324 723.21875 292.65625 C 721.6601 289.08926 719.9224 285.57237 718 282.09375 C 716.21673 278.86688 715.02237 276.15051 713.71875 273.34375 C 699.89211 265.1276 687.01184 257.45495 677.4375 251.5 C 653.64575 235.99762 637.34375 215.86081 637.34375 186.40625 C 637.34375 137.57371 673.38525 106.5625 720.96875 106.5625 C 744.7605 106.5625 761.75682 113.51779 770.59375 119.71875 C 776.03183 140.64698 795.04579 189.50372 804.5625 205.78125 L 816.8125 199.5625 C 828.36848 164.68211 841.96875 85.627397 841.96875 70.125 L 831.0625 64.6875 z "
         style="font-size:50.34442520000000343px;font-style:normal;font-variant:normal;font-weight:bold;font-stretch:normal;text-align:start;line-height:125%;writing-mode:lr-tb;text-anchor:start;fill:url(#linearGradient3687);fill-opacity:1;stroke:#5781b8;stroke-width:3.54330708999999988;stroke-linecap:butt;stroke-linejoin:round;stroke-opacity:1;display:inline;font-family:Arial Black;-inkscape-font-specification:Arial Black Bold;stroke-miterlimit:4;stroke-dasharray:none" />
    </clipPath>
    <filter
       y="-0.5"
       x="-0.5"
       width="2.0"
       height="2.0"
       id="filtera">
      <feGaussianBlur
         id="feGaussianBlur3777"
         stdDeviation="5.0" />
    </filter>
    <clipPath
       id="clipPathW">
      <path
         id="path3551"
         d="M 554.875 566.34375 C 556.90201 566.09705 558.85313 565.93458 560.9375 565.625 C 565.5787 564.93567 570.3517 564.06917 575.25 563.03125 C 580.1483 561.99333 585.16349 560.78111 590.28125 559.34375 C 595.39901 557.90639 600.63793 556.26265 605.9375 554.375 C 609.15093 553.23041 612.44959 551.82516 615.71875 550.5 C 604.00903 495.47323 591.58679 448.604 587.71875 438.3125 L 577.53125 444.5 C 568.01458 458.45216 544.21936 527.43943 538.78125 555.34375 C 541.91575 557.94317 547.72424 561.92066 554.875 566.34375 z "
         style="font-size:50.34442520000000343px;font-style:normal;font-variant:normal;font-weight:bold;font-stretch:normal;text-align:start;line-height:125%;writing-mode:lr-tb;text-anchor:start;fill:url(#linearGradient3685);fill-opacity:1;stroke:#5781b8;stroke-width:3.54330708999999988;stroke-linecap:butt;stroke-linejoin:round;stroke-opacity:1;display:inline;font-family:Arial Black;-inkscape-font-specification:Arial Black Bold;stroke-miterlimit:4;stroke-dasharray:none" />
    </clipPath>
    <filter
       y="-0.5"
       x="-0.5"
       width="2.0"
       height="2.0"
       id="filtere">
      <feGaussianBlur
         id="feGaussianBlur3782"
         stdDeviation="5.0" />
    </filter>
    <clipPath
       id="clipPathV">
      <path
         id="path3553"
         d="M 346.96875 68.5625 C 223.25167 68.562503 147.78125 173.21751 147.78125 342.96875 C 147.78125 525.12188 236.16719 608.0625 346.96875 608.0625 C 435.82287 608.06251 498.33152 558.04381 521.5625 447.21875 L 422.21875 350.34375 C 423.73525 447.36233 453.27052 577.0625 356.46875 577.0625 C 260.622 577.06252 257.21875 449.92481 257.21875 329.78125 C 257.21875 208.08743 251.10744 100.34375 337.4375 100.34375 L 338.125 100.34375 C 373.91849 100.34375 394.73949 119.66566 406.78125 148.9375 L 527.59375 271.3125 C 510.39027 127.81249 438.03112 68.5625 347.65625 68.5625 L 346.96875 68.5625 z "
         style="font-size:50.34442520000000343px;font-style:normal;font-variant:normal;font-weight:bold;font-stretch:normal;text-align:start;line-height:125%;writing-mode:lr-tb;text-anchor:start;fill:url(#linearGradient3689);fill-opacity:1;stroke:#5781b8;stroke-width:3.54330708999999988;stroke-linecap:butt;stroke-linejoin:round;stroke-opacity:1;display:inline;font-family:Arial Black;-inkscape-font-specification:Arial Black Bold;stroke-miterlimit:4;stroke-dasharray:none" />
    </clipPath>
    <filter
       y="-0.5"
       x="-0.5"
       width="2.0"
       height="2.0"
       id="filterS">
      <feGaussianBlur
         id="feGaussianBlur3787"
         stdDeviation="5.0" />
    </filter>
    <radialGradient
       inkscape:collect="always"
       xlink:href="#linearGradient3320"
       id="radialGradient3326"
       cx="405.84979"
       cy="192.17175"
       fx="405.84979"
       fy="192.17175"
       r="304.27821"
       gradientTransform="matrix(3.0308091e-3,1.5711507,-1.5905099,3.0681542e-3,711.88281,-369.06081)"
       gradientUnits="userSpaceOnUse" />
    <linearGradient
       inkscape:collect="always"
       xlink:href="#linearGradient3328"
       id="linearGradient3334"
       x1="470.08313"
       y1="370.33176"
       x2="119.56069"
       y2="-50.997681"
       gradientUnits="userSpaceOnUse" />
    <linearGradient
       inkscape:collect="always"
       xlink:href="#linearGradient3357"
       id="linearGradient3363"
       x1="493.85712"
       y1="421.229"
       x2="138.28923"
       y2="-26.367916"
       gradientUnits="userSpaceOnUse" />
    <radialGradient
       inkscape:collect="always"
       xlink:href="#linearGradient3365"
       id="radialGradient3373"
       cx="443.22961"
       cy="352.24225"
       fx="443.22961"
       fy="352.24225"
       r="190"
       gradientTransform="matrix(2.1420753e-2,-1.7518593,1.5318996,2.6132792e-2,-105.86443,1136.0163)"
       gradientUnits="userSpaceOnUse" />
    <radialGradient
       inkscape:collect="always"
       xlink:href="#linearGradient3375"
       id="radialGradient3381"
       cx="387.94962"
       cy="253.82617"
       fx="387.94962"
       fy="253.82617"
       r="320.2782"
       gradientTransform="matrix(-9.0313749e-3,1.1994145,-1.0051005,-7.5682339e-3,646.57412,-210.16258)"
       gradientUnits="userSpaceOnUse" />
    <radialGradient
       inkscape:collect="always"
       xlink:href="#linearGradient3384"
       id="radialGradient3392"
       cx="370.95566"
       cy="186.02673"
       fx="370.95566"
       fy="186.02673"
       r="304.2782"
       gradientTransform="matrix(-1.0929392e-2,1.4989217,-1.6426441,-1.1977344e-2,734.16503,-301.69859)"
       gradientUnits="userSpaceOnUse" />
  </defs>
  <metadata
     id="metadata2488">
    <rdf:RDF>
      <cc:Work
         rdf:about="">
        <dc:format>image/svg+xml</dc:format>
        <dc:type
           rdf:resource="http://purl.org/dc/dcmitype/StillImage" />
        <cc:license
           rdf:resource="http://creativecommons.org/licenses/by-sa/3.0/" />
        <dc:creator>
          <cc:Agent>
            <dc:title>Michel Cadiou</dc:title>
          </cc:Agent>
        </dc:creator>
        <dc:rights>
          <cc:Agent>
            <dc:title>AFUL</dc:title>
          </cc:Agent>
        </dc:rights>
      </cc:Work>
      <cc:License
         rdf:about="http://creativecommons.org/licenses/by-sa/3.0/">
        <cc:permits
           rdf:resource="http://creativecommons.org/ns#Reproduction" />
        <cc:permits
           rdf:resource="http://creativecommons.org/ns#Distribution" />
        <cc:requires
           rdf:resource="http://creativecommons.org/ns#Notice" />
        <cc:requires
           rdf:resource="http://creativecommons.org/ns#Attribution" />
        <cc:permits
           rdf:resource="http://creativecommons.org/ns#DerivativeWorks" />
        <cc:requires
           rdf:resource="http://creativecommons.org/ns#ShareAlike" />
      </cc:License>
    </rdf:RDF>
  </metadata>
  <g
     inkscape:groupmode="layer"
     id="layer3"
     inkscape:label="droite_right"
     style="display:none"
     sodipodi:insensitive="true">
    <path
       sodipodi:type="arc"
       style="opacity:1;fill:url(#radialGradient3374);fill-opacity:1;fill-rule:nonzero;stroke:none;stroke-opacity:1;display:inline"
       id="path2575"
       sodipodi:cx="358"
       sodipodi:cy="694.76117"
       sodipodi:rx="283.33334"
       sodipodi:ry="16"
       d="M 641.33334,694.76117 A 283.33334,16 0 1 1 74.666656,694.76117 A 283.33334,16 0 1 1 641.33334,694.76117 z"
       transform="matrix(1.3905882,0,0,3.1666667,29.028818,-1516.6492)" />
    <path
       sodipodi:type="arc"
       style="opacity:1;fill:url(#radialGradient3374);fill-opacity:1;fill-rule:nonzero;stroke:none;stroke-opacity:1;display:inline"
       id="path3376"
       sodipodi:cx="358"
       sodipodi:cy="694.76117"
       sodipodi:rx="283.33334"
       sodipodi:ry="16"
       d="M 641.33334,694.76117 A 283.33334,16 0 1 1 74.666656,694.76117 A 283.33334,16 0 1 1 641.33334,694.76117 z"
       transform="matrix(1.3905882,0,0,3.1666667,29.028818,-1516.6492)" />
    <path
       sodipodi:type="arc"
       style="opacity:1;fill:url(#linearGradient3333);fill-opacity:1;fill-rule:nonzero;stroke:none;stroke-opacity:1"
       id="path3323"
       sodipodi:cx="374"
       sodipodi:cy="251.09448"
       sodipodi:rx="190"
       sodipodi:ry="221"
       d="M 564,251.09448 A 190,221 0 1 1 184,251.09448 A 190,221 0 1 1 564,251.09448 z"
       transform="matrix(1.7789474,0,0,1.5339367,-137.32632,-18.068547)" />
    <path
       sodipodi:type="arc"
       style="opacity:1;fill:url(#linearGradient3337);fill-opacity:1;fill-rule:nonzero;stroke:none;stroke-opacity:1;display:inline"
       id="path3335"
       sodipodi:cx="374"
       sodipodi:cy="251.09448"
       sodipodi:rx="190"
       sodipodi:ry="221"
       d="M 564,251.09448 A 190,221 0 1 1 184,251.09448 A 190,221 0 1 1 564,251.09448 z"
       transform="matrix(1.7263158,0,0,1.4615385,-117.64211,0.1102391)" />
    <path
       style="opacity:1;fill:url(#linearGradient3345);fill-opacity:1;fill-rule:nonzero;stroke:none;stroke-opacity:1;display:inline"
       d="M 544.11534,48.43103 C 462.17757,46.98454 379.04431,76.96645 314.18116,138.68929 C 184.45482,262.13497 176.6961,466.07543 296.84625,593.93232 C 416.99639,721.7892 619.7788,725.38178 749.5051,601.93613 C 879.2314,478.49042 887.0234,274.51834 766.8733,146.66144 C 706.7982,82.733 626.0531,49.87752 544.11534,48.43103 z"
       id="path3301" />
    <path
       style="opacity:1;fill:url(#radialGradient3205);fill-opacity:1;fill-rule:nonzero;stroke:none;stroke-opacity:1;display:inline"
       d="M 543.5027,58.42855 C 465.65826,57.05395 386.67807,85.54572 325.05525,144.20082 C 201.80959,261.51105 194.43847,455.31533 308.58633,576.81752 C 422.73419,698.3197 615.3863,701.73373 738.6319,584.42353 C 861.8775,467.11327 869.2803,273.27894 755.1325,151.77674 C 698.0585,91.02566 621.3471,59.80315 543.5027,58.42855 z"
       id="path3303" />
    <g
       style="display:inline"
       id="g3305"
       transform="matrix(-1,0,0,1,1067.3125,0)">
      <path
         sodipodi:nodetypes="cccccccc"
         id="path3307"
         d="M 422.04254,234.84375 L 277.3125,365.5 L 422.04254,496.1875 L 422.04254,404.09375 L 746,404.09375 L 746,306.09375 L 422.04254,306.09375 L 422.04254,234.84375 z"
         style="opacity:1;fill:url(#linearGradient3311);fill-opacity:1;fill-rule:nonzero;stroke:none;stroke-opacity:1" />
      <path
         id="path3309"
         d="M 416.3095,254.84375 L 301.3125,363.50178 L 416.3095,472.1875 L 416.3095,397.691 L 720,397.691 L 720,317.9623 L 416.3095,317.9623 L 416.3095,254.84375 z"
         style="opacity:1;fill:url(#linearGradient3313);fill-opacity:1;fill-rule:nonzero;stroke:none;stroke-opacity:1;display:inline" />
    </g>
  </g>
  <g
     inkscape:groupmode="layer"
     id="layer4"
     inkscape:label="gauche_left"
     style="display:none"
     sodipodi:insensitive="true">
    <path
       sodipodi:type="arc"
       style="opacity:1;fill:url(#radialGradient3374);fill-opacity:1;fill-rule:nonzero;stroke:none;stroke-opacity:1;display:inline"
       id="path2573"
       sodipodi:cx="358"
       sodipodi:cy="694.76117"
       sodipodi:rx="283.33334"
       sodipodi:ry="16"
       d="M 641.33334,694.76117 A 283.33334,16 0 1 1 74.666656,694.76117 A 283.33334,16 0 1 1 641.33334,694.76117 z"
       transform="matrix(1.3905882,0,0,3.1666667,29.028818,-1516.6492)" />
    <path
       sodipodi:type="arc"
       style="opacity:1;fill:url(#linearGradient3333);fill-opacity:1;fill-rule:nonzero;stroke:none;stroke-opacity:1;display:inline"
       id="path3348"
       sodipodi:cx="374"
       sodipodi:cy="251.09448"
       sodipodi:rx="190"
       sodipodi:ry="221"
       d="M 564,251.09448 A 190,221 0 1 1 184,251.09448 A 190,221 0 1 1 564,251.09448 z"
       transform="matrix(1.7789474,0,0,1.5339367,-137.32632,-18.068547)" />
    <path
       sodipodi:type="arc"
       style="opacity:1;fill:url(#linearGradient3337);fill-opacity:1;fill-rule:nonzero;stroke:none;stroke-opacity:1;display:inline"
       id="path3350"
       sodipodi:cx="374"
       sodipodi:cy="251.09448"
       sodipodi:rx="190"
       sodipodi:ry="221"
       d="M 564,251.09448 A 190,221 0 1 1 184,251.09448 A 190,221 0 1 1 564,251.09448 z"
       transform="matrix(1.7263158,0,0,1.4615385,-117.64211,0.1102391)" />
    <path
       sodipodi:type="arc"
       style="opacity:1;fill:url(#radialGradient3374);fill-opacity:1;fill-rule:nonzero;stroke:none;stroke-opacity:1;display:inline"
       id="path3352"
       sodipodi:cx="358"
       sodipodi:cy="694.76117"
       sodipodi:rx="283.33334"
       sodipodi:ry="16"
       d="M 641.33334,694.76117 A 283.33334,16 0 1 1 74.666656,694.76117 A 283.33334,16 0 1 1 641.33334,694.76117 z"
       transform="matrix(1.3905882,0,0,3.1666667,29.028818,-1516.6492)" />
    <path
       style="opacity:1;fill:url(#linearGradient3345);fill-opacity:1;fill-rule:nonzero;stroke:none;stroke-opacity:1;display:inline"
       d="M 544.11534,48.43103 C 462.17757,46.98454 379.04431,76.96645 314.18116,138.68929 C 184.45482,262.13497 176.6961,466.07543 296.84625,593.93232 C 416.99639,721.7892 619.7788,725.38178 749.5051,601.93613 C 879.2314,478.49042 887.0234,274.51834 766.8733,146.66144 C 706.7982,82.733 626.0531,49.87752 544.11534,48.43103 z"
       id="path3354" />
    <path
       style="opacity:1;fill:url(#radialGradient3205);fill-opacity:1;fill-rule:nonzero;stroke:none;stroke-opacity:1;display:inline"
       d="M 543.5027,58.42855 C 465.65826,57.05395 386.67807,85.54572 325.05525,144.20082 C 201.80959,261.51105 194.43847,455.31533 308.58633,576.81752 C 422.73419,698.3197 615.3863,701.73373 738.6319,584.42353 C 861.8775,467.11327 869.2803,273.27894 755.1325,151.77674 C 698.0585,91.02566 621.3471,59.80315 543.5027,58.42855 z"
       id="path3356" />
    <g
       style="display:inline"
       id="g3358">
      <path
         sodipodi:nodetypes="cccccccc"
         id="path3360"
         d="M 422.04254,234.84375 L 277.3125,365.5 L 422.04254,496.1875 L 422.04254,404.09375 L 746,404.09375 L 746,306.09375 L 422.04254,306.09375 L 422.04254,234.84375 z"
         style="opacity:1;fill:url(#linearGradient3364);fill-opacity:1;fill-rule:nonzero;stroke:none;stroke-opacity:1" />
      <path
         id="path3362"
         d="M 416.3095,254.84375 L 301.3125,363.50178 L 416.3095,472.1875 L 416.3095,397.691 L 720,397.691 L 720,317.9623 L 416.3095,317.9623 L 416.3095,254.84375 z"
         style="opacity:1;fill:url(#linearGradient3366);fill-opacity:1;fill-rule:nonzero;stroke:none;stroke-opacity:1;display:inline" />
    </g>
  </g>
  <g
     inkscape:groupmode="layer"
     id="layer6"
     inkscape:label="vert_green"
     style="display:none"
     sodipodi:insensitive="true">
    <path
       sodipodi:type="arc"
       style="opacity:1;fill:url(#radialGradient3374);fill-opacity:1;fill-rule:nonzero;stroke:none;stroke-opacity:1;display:inline"
       id="path2524"
       sodipodi:cx="358"
       sodipodi:cy="694.76117"
       sodipodi:rx="283.33334"
       sodipodi:ry="16"
       d="M 641.33334,694.76117 A 283.33334,16 0 1 1 74.666656,694.76117 A 283.33334,16 0 1 1 641.33334,694.76117 z"
       transform="matrix(1.3905882,0,0,3.1666667,29.028818,-1516.6492)" />
    <path
       sodipodi:type="arc"
       style="opacity:1;fill:url(#linearGradient3334);fill-opacity:1;fill-rule:nonzero;stroke:none;stroke-opacity:1;display:inline"
       id="path2526"
       sodipodi:cx="374"
       sodipodi:cy="251.09448"
       sodipodi:rx="190"
       sodipodi:ry="221"
       d="M 564,251.09448 A 190,221 0 1 1 184,251.09448 A 190,221 0 1 1 564,251.09448 z"
       transform="matrix(1.7789474,0,0,1.5339367,-137.32632,-18.068547)" />
    <path
       sodipodi:type="arc"
       style="opacity:1;fill:#008000;fill-opacity:1;fill-rule:nonzero;stroke:none;stroke-opacity:1;display:inline"
       id="path2528"
       sodipodi:cx="374"
       sodipodi:cy="251.09448"
       sodipodi:rx="190"
       sodipodi:ry="221"
       d="M 564,251.09448 A 190,221 0 1 1 184,251.09448 A 190,221 0 1 1 564,251.09448 z"
       transform="matrix(1.7263158,0,0,1.4615385,-117.64211,0.1102391)" />
    <path
       sodipodi:type="arc"
       style="opacity:1;fill:url(#radialGradient3374);fill-opacity:1;fill-rule:nonzero;stroke:none;stroke-opacity:1;display:inline"
       id="path2530"
       sodipodi:cx="358"
       sodipodi:cy="694.76117"
       sodipodi:rx="283.33334"
       sodipodi:ry="16"
       d="M 641.33334,694.76117 A 283.33334,16 0 1 1 74.666656,694.76117 A 283.33334,16 0 1 1 641.33334,694.76117 z"
       transform="matrix(1.3905882,0,0,3.1666667,29.028818,-1516.6492)" />
    <path
       style="opacity:1;fill:#005500;fill-opacity:1;fill-rule:nonzero;stroke:none;stroke-opacity:1;display:inline"
       d="M 544.11534,48.43103 C 462.17757,46.98454 379.04431,76.96645 314.18116,138.68929 C 184.45482,262.13497 176.6961,466.07543 296.84625,593.93232 C 416.99639,721.7892 619.7788,725.38178 749.5051,601.93613 C 879.2314,478.49042 887.0234,274.51834 766.8733,146.66144 C 706.7982,82.733 626.0531,49.87752 544.11534,48.43103 z"
       id="path2532" />
    <path
       style="opacity:1;fill:url(#radialGradient3326);fill-opacity:1;fill-rule:nonzero;stroke:none;stroke-opacity:1;display:inline"
       d="M 543.5027,58.42855 C 465.65826,57.05395 386.67807,85.54572 325.05525,144.20082 C 201.80959,261.51105 194.43847,455.31533 308.58633,576.81752 C 422.73419,698.3197 615.3863,701.73373 738.6319,584.42353 C 861.8775,467.11327 869.2803,273.27894 755.1325,151.77674 C 698.0585,91.02566 621.3471,59.80315 543.5027,58.42855 z"
       id="path2534" />
  </g>
  <g
     inkscape:groupmode="layer"
     id="layer7"
     inkscape:label="rouge_red"
     style="display:none"
     sodipodi:insensitive="true">
    <path
       sodipodi:type="arc"
       style="opacity:1;fill:url(#radialGradient3374);fill-opacity:1;fill-rule:nonzero;stroke:none;stroke-opacity:1;display:inline"
       id="path3344"
       sodipodi:cx="358"
       sodipodi:cy="694.76117"
       sodipodi:rx="283.33334"
       sodipodi:ry="16"
       d="M 641.33334,694.76117 A 283.33334,16 0 1 1 74.666656,694.76117 A 283.33334,16 0 1 1 641.33334,694.76117 z"
       transform="matrix(1.3905882,0,0,3.1666667,29.028818,-1516.6492)" />
    <path
       sodipodi:type="arc"
       style="opacity:1;fill:url(#linearGradient3363);fill-opacity:1;fill-rule:nonzero;stroke:none;stroke-opacity:1;display:inline"
       id="path3346"
       sodipodi:cx="374"
       sodipodi:cy="251.09448"
       sodipodi:rx="190"
       sodipodi:ry="221"
       d="M 564,251.09448 A 190,221 0 1 1 184,251.09448 A 190,221 0 1 1 564,251.09448 z"
       transform="matrix(1.7789474,0,0,1.5339367,-137.32632,-18.068547)" />
    <path
       sodipodi:type="arc"
       style="opacity:1;fill:url(#radialGradient3373);fill-opacity:1;fill-rule:nonzero;stroke:none;stroke-opacity:1;display:inline"
       id="path3349"
       sodipodi:cx="374"
       sodipodi:cy="251.09448"
       sodipodi:rx="190"
       sodipodi:ry="221"
       d="M 564,251.09448 A 190,221 0 1 1 184,251.09448 A 190,221 0 1 1 564,251.09448 z"
       transform="matrix(1.7263158,0,0,1.4615385,-117.64211,0.1102391)" />
    <path
       sodipodi:type="arc"
       style="opacity:1;fill:url(#radialGradient3374);fill-opacity:1;fill-rule:nonzero;stroke:none;stroke-opacity:1;display:inline"
       id="path3351"
       sodipodi:cx="358"
       sodipodi:cy="694.76117"
       sodipodi:rx="283.33334"
       sodipodi:ry="16"
       d="M 641.33334,694.76117 A 283.33334,16 0 1 1 74.666656,694.76117 A 283.33334,16 0 1 1 641.33334,694.76117 z"
       transform="matrix(1.3905882,0,0,3.1666667,29.028818,-1516.6492)" />
    <path
       style="opacity:1;fill:url(#radialGradient3381);fill-opacity:1;fill-rule:nonzero;stroke:none;stroke-opacity:1;display:inline"
       d="M 544.11534,48.43103 C 462.17757,46.98454 379.04431,76.96645 314.18116,138.68929 C 184.45482,262.13497 176.6961,466.07543 296.84625,593.93232 C 416.99639,721.7892 619.7788,725.38178 749.5051,601.93613 C 879.2314,478.49042 887.0234,274.51834 766.8733,146.66144 C 706.7982,82.733 626.0531,49.87752 544.11534,48.43103 z"
       id="path3353" />
    <path
       style="opacity:1;fill:url(#radialGradient3392);fill-opacity:1;fill-rule:nonzero;stroke:none;stroke-opacity:1;display:inline"
       d="M 543.5027,58.42855 C 465.65826,57.05395 386.67807,85.54572 325.05525,144.20082 C 201.80959,261.51105 194.43847,455.31533 308.58633,576.81752 C 422.73419,698.3197 615.3863,701.73373 738.6319,584.42353 C 861.8775,467.11327 869.2803,273.27894 755.1325,151.77674 C 698.0585,91.02566 621.3471,59.80315 543.5027,58.42855 z"
       id="path3355" />
  </g>
  <g
     inkscape:groupmode="layer"
     id="layer2"
     inkscape:label="acces_interdit_acces_forbidden"
     style="opacity:1;display:inline"
     sodipodi:insensitive="true">
    <path
       sodipodi:type="arc"
       style="opacity:1;fill:url(#radialGradient3374);fill-opacity:1;fill-rule:nonzero;stroke:none;stroke-opacity:1;display:inline"
       id="path2571"
       sodipodi:cx="358"
       sodipodi:cy="694.76117"
       sodipodi:rx="283.33334"
       sodipodi:ry="16"
       d="M 641.33334,694.76117 A 283.33334,16 0 1 1 74.666656,694.76117 A 283.33334,16 0 1 1 641.33334,694.76117 z"
       transform="matrix(1.3905882,0,0,3.1666667,29.028818,-1516.6492)" />
    <path
       sodipodi:type="arc"
       style="opacity:1;fill:url(#radialGradient3374);fill-opacity:1;fill-rule:nonzero;stroke:none;stroke-opacity:1;display:inline"
       id="path3378"
       sodipodi:cx="358"
       sodipodi:cy="694.76117"
       sodipodi:rx="283.33334"
       sodipodi:ry="16"
       d="M 641.33334,694.76117 A 283.33334,16 0 1 1 74.666656,694.76117 A 283.33334,16 0 1 1 641.33334,694.76117 z"
       transform="matrix(1.3905882,0,0,3.1666667,29.028818,-1516.6492)" />
    <path
       style="fill:url(#linearGradient3439);fill-opacity:1;fill-rule:nonzero;stroke:none;stroke-opacity:1"
       d="M 290.82958,127.28916 C 159.44132,258.6774 159.46342,471.93847 290.85167,603.32671 C 422.23992,734.71495 635.4789,734.71495 766.86713,603.32671 C 898.2553,471.93845 898.2775,258.67736 766.88926,127.28912 C 635.50102,-4.099122 422.21782,-4.099088 290.82958,127.28916 z M 346.40375,275.75949 L 618.3747,547.73044 C 542.51656,584.93106 448.23439,572.0003 385.18414,508.95005 C 322.13357,445.89948 309.20243,351.61783 346.40375,275.75949 z M 439.29991,182.86333 C 515.1633,145.64419 609.47592,158.54078 672.53467,221.59953 C 735.59311,284.658 748.48938,378.97107 711.27086,454.83428 L 439.29991,182.86333 z"
       id="path2525" />
    <path
       style="fill:url(#linearGradient3431);fill-opacity:1;fill-rule:nonzero;stroke:none;stroke-opacity:1;display:inline"
       d="M 303.45097,139.9097 C 177.07887,266.2818 175.51681,469.81766 299.93818,594.23902 C 424.35955,718.66039 627.8745,717.07741 754.24658,590.70532 C 880.6186,464.33321 882.2229,260.79699 757.80157,136.37563 C 633.38022,11.954274 429.82306,13.537612 303.45097,139.9097 z M 344.11292,258.60751 L 635.52786,550.02245 C 519.46824,601.26654 439.06284,574.48653 379.35585,514.77953 C 319.64853,455.07221 285.81846,365.59825 344.11292,258.60751 z M 423.56299,179.15744 C 519.45673,127.91818 618.64825,156.05702 678.3633,215.77207 C 738.07806,275.48685 768.23819,370.64234 714.97793,470.57238 L 423.56299,179.15744 z"
       id="path2576"
       sodipodi:nodetypes="cssscccsccscc" />
    <path
       style="fill:url(#radialGradient3397);fill-opacity:1;fill-rule:nonzero;stroke:none;stroke-opacity:1;display:inline"
       d="M 312.53845,148.99643 C 190.62514,270.90973 188.60996,466.75597 308.01518,586.16118 C 427.4204,705.56639 623.24658,703.53113 745.15986,581.61784 C 867.0731,459.70453 869.1289,263.85784 749.72373,144.45263 C 630.31852,25.047424 434.45174,27.083133 312.53845,148.99643 z M 341.46521,244.72042 L 649.41579,552.671 C 498.23678,619.43466 430.617,578.11894 373.31713,520.81908 C 316.01697,463.51891 267.9405,381.13303 341.46521,244.72042 z M 409.62675,176.55888 C 527.26665,111.86996 627.09451,152.42652 684.4021,209.73411 C 741.7094,267.04144 785.23069,349.85494 717.57733,484.50946 L 409.62675,176.55888 z"
       id="path2578"
       sodipodi:nodetypes="cssscccsccscc" />
    <path
       style="fill:url(#radialGradient3389);fill-opacity:1;fill-rule:nonzero;stroke:none;stroke-opacity:1;display:inline"
       d="M 255.54721,518.21185 C 268.95724,542.72436 286.00097,565.72456 306.70197,586.42556 C 426.1072,705.83076 621.93536,703.80895 743.84864,581.89565 C 865.7619,459.98234 867.8279,264.11 748.42274,144.70479 C 727.72154,124.00359 704.70074,106.9812 680.18693,93.57213 C 674.38166,124.7768 665.77093,155.56136 654.35544,185.51811 C 664.84944,193.09622 674.45974,201.37977 683.10375,210.02378 C 740.41105,267.33111 789.28027,367.45777 716.29357,484.77896 L 566.78468,335.27007 C 556.3872,347.77118 545.33916,359.89757 533.61696,371.61978 C 522.3618,382.87494 510.7227,393.53827 498.74775,403.57216 L 648.12406,552.94847 C 519.61172,619.71214 429.32083,578.40643 372.02096,521.10657 C 363.18965,512.27526 354.5689,502.84086 346.58721,492.71181 C 316.91472,503.95522 286.43844,512.46643 255.54721,518.21185 z"
       id="path2588"
       sodipodi:nodetypes="csssccsccsccscc" />
  </g>
  <g
     sodipodi:insensitive="true"
     inkscape:groupmode="layer"
     id="layer1"
     inkscape:label="W"
     style="display:none">
    <path
       style="font-size:50.3444252px;font-style:normal;font-variant:normal;font-weight:bold;font-stretch:normal;text-align:start;line-height:125%;writing-mode:lr-tb;text-anchor:start;fill:url(#linearGradient3261);fill-opacity:1;stroke:#578194;stroke-width:3.54330707;stroke-linecap:round;stroke-linejoin:miter;stroke-miterlimit:4;stroke-dasharray:none;stroke-opacity:1;display:inline;font-family:Arial Black;-inkscape-font-specification:Arial Black Bold"
       d="M 219.34375,195.09375 L 213.625,212.34375 C 242.77568,224.47596 252.51094,231.48863 261.65625,242.34375 C 294.23641,317.05258 397.69629,585.88781 414.84375,628.03125 L 421.6875,628.03125 C 436.54861,614.62199 454.25587,585.88421 465.6875,564.8125 C 481.01645,528.02632 498.0517,487.4427 520.125,440.59375 L 499.90625,422.8125 C 482.87352,462.86023 472.38463,488.98917 458.84375,517.5625 L 457.125,517.5625 C 377.67513,312.59216 359.96289,264.70391 348.53125,231.5 L 362.25,212.96875 L 365.09375,195.75 C 343.94521,195.75 323.38545,195.75 301.09375,195.75 C 273.65782,195.75 246.2081,195.09375 219.34375,195.09375 z M 682.34375,195.09375 C 662.90995,195.09376 643.46503,195.75 624.03125,195.75 C 615.4575,195.75 606.87715,195.75 598.875,195.75 L 597.75,198.28125 L 596.03125,232.125 C 586.9233,257.86143 578.7264,275.42615 563.625,310.625 L 583.5625,330.71875 C 606.83436,281.81804 620.454,257.15543 627.46875,244.28125 C 639.47199,232.14905 654.33731,223.83741 678.34375,212.34375 L 682.34375,195.09375 z M 817.78125,195.09375 C 796.06114,195.09376 773.79169,195.75 751.5,195.75 C 740.06839,195.75 728.61913,195.75 717.1875,195.75 L 712.0625,212.96875 L 728.625,235.96875 C 710.26922,295.20824 688.95273,361.22495 670.0625,417.8125 L 690.3125,438.21875 C 723.04042,348.38484 753.09054,270.20013 764.0625,248.75 C 777.2089,232.78657 788.64073,223.83741 813.21875,212.34375 L 817.78125,195.09375 z M 449.375,195.59375 L 551.84375,298.78125 C 534.38653,255.31949 529.21589,242.49723 525.71875,230.21875 L 522.84375,198.28125 L 522.28125,195.75 C 506.27697,195.75 489.14745,195.75 472,195.75 C 464.4629,195.75 456.91211,195.68336 449.375,195.59375 z M 523.21875,443.3125 C 554.75222,519.02812 587.03001,603.521 597.15625,628.03125 L 604.03125,628.03125 C 617.17766,613.34491 635.47061,585.88421 645.1875,564.8125 C 646.4482,561.19593 647.72507,557.51715 649,553.875 L 523.21875,443.3125 z"
       id="path3372" />
    <g
       clip-path="url(#clipPath)"
       id="g3374">
      <g
         id="g3376">
        <path
           style="fill:none;stroke:#ffffff;stroke-width:10;stroke-opacity:1;filter:url(#filter)"
           d="M 219.34375,195.09375 L 213.625,212.34375 M 213.625,212.34375 C 242.77568,224.47596 252.51094,231.48863 261.65625,242.34375 M 261.65625,242.34375 C 294.23641,317.05258 397.69629,585.88781 414.84375,628.03125 M 414.84375,628.03125 L 421.6875,628.03125 M 499.90625,422.8125 C 482.87352,462.86023 472.38463,488.98917 458.84375,517.5625 M 598.875,195.75 L 597.75,198.28125 M 597.75,198.28125 L 596.03125,232.125 M 596.03125,232.125 C 586.9233,257.86143 578.7264,275.42615 563.625,310.625 M 563.625,310.625 L 583.5625,330.71875 M 627.46875,244.28125 C 639.47199,232.14905 654.33731,223.83741 678.34375,212.34375 M 717.1875,195.75 L 712.0625,212.96875 M 712.0625,212.96875 L 728.625,235.96875 M 728.625,235.96875 C 710.26922,295.20824 688.95273,361.22495 670.0625,417.8125 M 670.0625,417.8125 L 690.3125,438.21875 M 764.0625,248.75 C 777.2089,232.78657 788.64073,223.83741 813.21875,212.34375 M 449.375,195.59375 L 551.84375,298.78125 M 523.21875,443.3125 C 554.75222,519.02812 587.03001,603.521 597.15625,628.03125 M 597.15625,628.03125 L 604.03125,628.03125"
           id="path3379" />
        <path
           style="fill:none;stroke:#000000;stroke-width:10;stroke-opacity:1;filter:url(#filter)"
           d="M 421.6875,628.03125 C 436.54861,614.62199 454.25587,585.88421 465.6875,564.8125 M 465.6875,564.8125 C 481.01645,528.02632 498.0517,487.4427 520.125,440.59375 M 520.125,440.59375 L 499.90625,422.8125 M 458.84375,517.5625 L 457.125,517.5625 M 457.125,517.5625 C 377.67513,312.59216 359.96289,264.70391 348.53125,231.5 M 348.53125,231.5 L 362.25,212.96875 M 362.25,212.96875 L 365.09375,195.75 M 365.09375,195.75 C 343.94521,195.75 323.38545,195.75 301.09375,195.75 M 301.09375,195.75 C 273.65782,195.75 246.2081,195.09375 219.34375,195.09375 M 682.34375,195.09375 C 662.90995,195.09376 643.46503,195.75 624.03125,195.75 M 624.03125,195.75 C 615.4575,195.75 606.87715,195.75 598.875,195.75 M 583.5625,330.71875 C 606.83436,281.81804 620.454,257.15543 627.46875,244.28125 M 678.34375,212.34375 L 682.34375,195.09375 M 817.78125,195.09375 C 796.06114,195.09376 773.79169,195.75 751.5,195.75 M 751.5,195.75 C 740.06839,195.75 728.61913,195.75 717.1875,195.75 M 690.3125,438.21875 C 723.04042,348.38484 753.09054,270.20013 764.0625,248.75 M 813.21875,212.34375 L 817.78125,195.09375 M 551.84375,298.78125 C 534.38653,255.31949 529.21589,242.49723 525.71875,230.21875 M 525.71875,230.21875 L 522.84375,198.28125 M 522.84375,198.28125 L 522.28125,195.75 M 522.28125,195.75 C 506.27697,195.75 489.14745,195.75 472,195.75 M 472,195.75 C 464.4629,195.75 456.91211,195.68336 449.375,195.59375 M 604.03125,628.03125 C 617.17766,613.34491 635.47061,585.88421 645.1875,564.8125 M 645.1875,564.8125 C 646.4482,561.19593 647.72507,557.51715 649,553.875 M 649,553.875 L 523.21875,443.3125"
           id="path3381" />
      </g>
    </g>
  </g>
  <g
     inkscape:groupmode="layer"
     id="layer5"
     inkscape:label="OS"
     style="display:none"
     sodipodi:insensitive="true">
    <path
       id="path3824"
       d="M 346.96875,68.5625 C 223.25167,68.562503 147.78125,173.21751 147.78125,342.96875 C 147.78125,525.12188 236.16719,608.0625 346.96875,608.0625 C 435.82287,608.06251 498.33152,558.04381 521.5625,447.21875 L 422.21875,350.34375 C 423.73525,447.36233 453.27052,577.0625 356.46875,577.0625 C 260.622,577.06252 257.21875,449.92481 257.21875,329.78125 C 257.21875,208.08743 251.10744,100.34375 337.4375,100.34375 L 338.125,100.34375 C 373.91849,100.34375 394.73949,119.66566 406.78125,148.9375 L 527.59375,271.3125 C 510.39027,127.81249 438.03112,68.5625 347.65625,68.5625 L 346.96875,68.5625 z"
       style="font-size:50.3444252px;font-style:normal;font-variant:normal;font-weight:bold;font-stretch:normal;text-align:start;line-height:125%;writing-mode:lr-tb;text-anchor:start;fill:url(#linearGradient3689);fill-opacity:1;stroke:#5781b8;stroke-width:3.54330707;stroke-linecap:butt;stroke-linejoin:round;stroke-miterlimit:4;stroke-dasharray:none;stroke-opacity:1;display:inline;font-family:Arial Black;-inkscape-font-specification:Arial Black Bold" />
    <path
       id="path3826"
       d="M 862.28125,430.59375 C 862.01445,432.59675 861.80575,434.65245 861.5,436.625 C 860.77119,441.32697 859.93823,445.93927 859,450.46875 C 858.06177,454.99823 857.03716,459.45477 855.90625,463.8125 C 854.77534,468.17023 853.55682,472.43829 852.25,476.625 C 850.94318,480.81171 849.52849,484.92106 848.0625,488.9375 C 846.59651,492.95394 845.07715,496.87184 843.46875,500.71875 C 841.86035,504.56566 840.17155,508.32188 838.4375,512 C 836.70345,515.67812 834.90546,519.27119 833.0625,522.78125 C 829.37659,529.80138 825.48975,536.4914 821.46875,542.84375 C 817.44775,549.1961 813.3158,555.21576 809.09375,560.90625 C 804.8717,566.59674 800.57031,571.96545 796.28125,577 C 795.5995,577.80025 794.93148,578.46624 794.25,579.25 C 833.12369,555.30095 863.03125,514.36622 863.03125,448.375 C 863.03125,442.39928 862.80215,436.47618 862.28125,430.59375 z"
       style="font-size:50.3444252px;font-style:normal;font-variant:normal;font-weight:bold;font-stretch:normal;text-align:start;line-height:125%;writing-mode:lr-tb;text-anchor:start;fill:url(#linearGradient3683);fill-opacity:1;stroke:#5781b8;stroke-width:1px;stroke-linecap:butt;stroke-linejoin:miter;stroke-opacity:1;display:inline;font-family:Arial Black;-inkscape-font-specification:Arial Black Bold" />
    <path
       id="path3828"
       d="M 831.0625,64.6875 C 810.66955,72.438692 788.2667,81.748789 778.75,89.5 C 765.15471,77.873192 738.62838,68.5625 708.71875,68.5625 L 708.03125,68.5625 C 608.78567,68.562503 553.74226,140.66267 553.0625,220.5 C 553.0625,280.1842 577.51025,318.93885 625.09375,350.71875 C 659.76174,373.97234 688.33173,391.02767 725.71875,414.28125 C 726.11919,414.52807 726.4784,414.81212 726.875,415.0625 C 727.45844,412.82781 728.07243,410.82545 728.625,408.46875 C 730.01874,402.52448 731.29412,396.2129 732.34375,389.625 C 733.39338,383.0371 734.22481,376.16662 734.71875,369.125 C 734.96572,365.60419 735.11913,362.03613 735.1875,358.4375 C 735.25587,354.83887 735.23043,351.21521 735.09375,347.5625 C 734.95707,343.90979 734.71193,340.24554 734.34375,336.5625 C 733.97557,332.87946 733.50112,329.15839 732.875,325.46875 C 732.24888,321.77911 731.47302,318.10999 730.5625,314.4375 C 729.65198,310.76501 728.59636,307.10036 727.375,303.46875 C 726.15364,299.83714 724.7774,296.22324 723.21875,292.65625 C 721.6601,289.08926 719.9224,285.57237 718,282.09375 C 716.21673,278.86688 715.02237,276.15051 713.71875,273.34375 C 699.89211,265.1276 687.01184,257.45495 677.4375,251.5 C 653.64575,235.99762 637.34375,215.86081 637.34375,186.40625 C 637.34375,137.57371 673.38525,106.5625 720.96875,106.5625 C 744.7605,106.5625 761.75682,113.51779 770.59375,119.71875 C 776.03183,140.64698 795.04579,189.50372 804.5625,205.78125 L 816.8125,199.5625 C 828.36848,164.68211 841.96875,85.627397 841.96875,70.125 L 831.0625,64.6875 z"
       style="font-size:50.3444252px;font-style:normal;font-variant:normal;font-weight:bold;font-stretch:normal;text-align:start;line-height:125%;writing-mode:lr-tb;text-anchor:start;fill:url(#linearGradient3687);fill-opacity:1;stroke:#5781b8;stroke-width:3.54330707;stroke-linecap:butt;stroke-linejoin:round;stroke-miterlimit:4;stroke-dasharray:none;stroke-opacity:1;display:inline;font-family:Arial Black;-inkscape-font-specification:Arial Black Bold" />
    <path
       id="path3830"
       d="M 554.875,566.34375 C 556.90201,566.09705 558.85313,565.93458 560.9375,565.625 C 565.5787,564.93567 570.3517,564.06917 575.25,563.03125 C 580.1483,561.99333 585.16349,560.78111 590.28125,559.34375 C 595.39901,557.90639 600.63793,556.26265 605.9375,554.375 C 609.15093,553.23041 612.44959,551.82516 615.71875,550.5 C 604.00903,495.47323 591.58679,448.604 587.71875,438.3125 L 577.53125,444.5 C 568.01458,458.45216 544.21936,527.43943 538.78125,555.34375 C 541.91575,557.94317 547.72424,561.92066 554.875,566.34375 z"
       style="font-size:50.3444252px;font-style:normal;font-variant:normal;font-weight:bold;font-stretch:normal;text-align:start;line-height:125%;writing-mode:lr-tb;text-anchor:start;fill:url(#linearGradient3685);fill-opacity:1;stroke:#5781b8;stroke-width:3.54330707;stroke-linecap:butt;stroke-linejoin:round;stroke-miterlimit:4;stroke-dasharray:none;stroke-opacity:1;display:inline;font-family:Arial Black;-inkscape-font-specification:Arial Black Bold" />
    <g
       id="g3832"
       clip-path="url(#clipPathr)">
      <g
         id="g3834">
        <path
           id="path3836"
           d="M 862.28125,430.59375 C 862.01445,432.59675 861.80575,434.65245 861.5,436.625 M 861.5,436.625 C 860.77119,441.32697 859.93823,445.93927 859,450.46875 M 859,450.46875 C 858.06177,454.99823 857.03716,459.45477 855.90625,463.8125 M 855.90625,463.8125 C 854.77534,468.17023 853.55682,472.43829 852.25,476.625 M 852.25,476.625 C 850.94318,480.81171 849.52849,484.92106 848.0625,488.9375 M 848.0625,488.9375 C 846.59651,492.95394 845.07715,496.87184 843.46875,500.71875 M 843.46875,500.71875 C 841.86035,504.56566 840.17155,508.32188 838.4375,512 M 838.4375,512 C 836.70345,515.67812 834.90546,519.27119 833.0625,522.78125 M 833.0625,522.78125 C 829.37659,529.80138 825.48975,536.4914 821.46875,542.84375 M 821.46875,542.84375 C 817.44775,549.1961 813.3158,555.21576 809.09375,560.90625 M 809.09375,560.90625 C 804.8717,566.59674 800.57031,571.96545 796.28125,577 M 796.28125,577 C 795.5995,577.80025 794.93148,578.46624 794.25,579.25"
           style="fill:none;stroke:#ffffff;stroke-width:10;stroke-opacity:1;filter:url(#filterN)" />
        <path
           id="path3838"
           d="M 794.25,579.25 C 833.12369,555.30095 863.03125,514.36622 863.03125,448.375 M 863.03125,448.375 C 863.03125,442.39928 862.80215,436.47618 862.28125,430.59375"
           style="fill:none;stroke:#000000;stroke-width:10;stroke-opacity:1;filter:url(#filterN)" />
      </g>
    </g>
    <g
       id="g3840"
       clip-path="url(#clipPathl)">
      <g
         id="g3842">
        <path
           id="path3844"
           d="M 553.0625,220.5 C 553.0625,280.1842 577.51025,318.93885 625.09375,350.71875 M 625.09375,350.71875 C 659.76174,373.97234 688.33173,391.02767 725.71875,414.28125 M 725.71875,414.28125 C 726.11919,414.52807 726.4784,414.81212 726.875,415.0625 M 637.34375,186.40625 C 637.34375,137.57371 673.38525,106.5625 720.96875,106.5625 M 720.96875,106.5625 C 744.7605,106.5625 761.75682,113.51779 770.59375,119.71875 M 770.59375,119.71875 C 776.03183,140.64698 795.04579,189.50372 804.5625,205.78125 M 804.5625,205.78125 L 816.8125,199.5625"
           style="fill:none;stroke:#ffffff;stroke-width:10;stroke-opacity:1;filter:url(#filtera)" />
        <path
           id="path3846"
           d="M 831.0625,64.6875 C 810.66955,72.438692 788.2667,81.748789 778.75,89.5 M 778.75,89.5 C 765.15471,77.873192 738.62838,68.5625 708.71875,68.5625 M 708.71875,68.5625 L 708.03125,68.5625 M 708.03125,68.5625 C 608.78567,68.562503 553.74226,140.66267 553.0625,220.5 M 726.875,415.0625 C 727.45844,412.82781 728.07243,410.82545 728.625,408.46875 M 728.625,408.46875 C 730.01874,402.52448 731.29412,396.2129 732.34375,389.625 M 732.34375,389.625 C 733.39338,383.0371 734.22481,376.16662 734.71875,369.125 M 734.71875,369.125 C 734.96572,365.60419 735.11913,362.03613 735.1875,358.4375 M 735.1875,358.4375 C 735.25587,354.83887 735.23043,351.21521 735.09375,347.5625 M 735.09375,347.5625 C 734.95707,343.90979 734.71193,340.24554 734.34375,336.5625 M 734.34375,336.5625 C 733.97557,332.87946 733.50112,329.15839 732.875,325.46875 M 732.875,325.46875 C 732.24888,321.77911 731.47302,318.10999 730.5625,314.4375 M 730.5625,314.4375 C 729.65198,310.76501 728.59636,307.10036 727.375,303.46875 M 727.375,303.46875 C 726.15364,299.83714 724.7774,296.22324 723.21875,292.65625 M 723.21875,292.65625 C 721.6601,289.08926 719.9224,285.57237 718,282.09375 M 718,282.09375 C 716.21673,278.86688 715.02237,276.15051 713.71875,273.34375 M 713.71875,273.34375 C 699.89211,265.1276 687.01184,257.45495 677.4375,251.5 M 677.4375,251.5 C 653.64575,235.99762 637.34375,215.86081 637.34375,186.40625 M 816.8125,199.5625 C 828.36848,164.68211 841.96875,85.627397 841.96875,70.125 M 841.96875,70.125 L 831.0625,64.6875"
           style="fill:none;stroke:#000000;stroke-width:10;stroke-opacity:1;filter:url(#filtera)" />
      </g>
    </g>
    <g
       id="g3848"
       clip-path="url(#clipPathW)">
      <g
         id="g3850">
        <path
           id="path3852"
           d="M 554.875,566.34375 C 556.90201,566.09705 558.85313,565.93458 560.9375,565.625 M 560.9375,565.625 C 565.5787,564.93567 570.3517,564.06917 575.25,563.03125 M 575.25,563.03125 C 580.1483,561.99333 585.16349,560.78111 590.28125,559.34375 M 590.28125,559.34375 C 595.39901,557.90639 600.63793,556.26265 605.9375,554.375 M 605.9375,554.375 C 609.15093,553.23041 612.44959,551.82516 615.71875,550.5 M 577.53125,444.5 C 568.01458,458.45216 544.21936,527.43943 538.78125,555.34375 M 538.78125,555.34375 C 541.91575,557.94317 547.72424,561.92066 554.875,566.34375"
           style="fill:none;stroke:#ffffff;stroke-width:10;stroke-opacity:1;filter:url(#filtere)" />
        <path
           id="path3854"
           d="M 615.71875,550.5 C 604.00903,495.47323 591.58679,448.604 587.71875,438.3125 M 587.71875,438.3125 L 577.53125,444.5"
           style="fill:none;stroke:#000000;stroke-width:10;stroke-opacity:1;filter:url(#filtere)" />
      </g>
    </g>
    <g
       id="g3856"
       clip-path="url(#clipPathV)">
      <g
         id="g3858">
        <path
           id="path3860"
           d="M 346.96875,68.5625 C 223.25167,68.562503 147.78125,173.21751 147.78125,342.96875 M 147.78125,342.96875 C 147.78125,525.12188 236.16719,608.0625 346.96875,608.0625 M 346.96875,608.0625 C 435.82287,608.06251 498.33152,558.04381 521.5625,447.21875 M 422.21875,350.34375 C 423.73525,447.36233 453.27052,577.0625 356.46875,577.0625 M 337.4375,100.34375 L 338.125,100.34375 M 338.125,100.34375 C 373.91849,100.34375 394.73949,119.66566 406.78125,148.9375 M 406.78125,148.9375 L 527.59375,271.3125"
           style="fill:none;stroke:#ffffff;stroke-width:10;stroke-opacity:1;filter:url(#filterS)" />
        <path
           id="path3862"
           d="M 521.5625,447.21875 L 422.21875,350.34375 M 356.46875,577.0625 C 260.622,577.06252 257.21875,449.92481 257.21875,329.78125 M 257.21875,329.78125 C 257.21875,208.08743 251.10744,100.34375 337.4375,100.34375 M 527.59375,271.3125 C 510.39027,127.81249 438.03112,68.5625 347.65625,68.5625 M 347.65625,68.5625 L 346.96875,68.5625"
           style="fill:none;stroke:#000000;stroke-width:10;stroke-opacity:1;filter:url(#filterS)" />
      </g>
    </g>
  </g>
</svg>
