<?xml version="1.0" encoding="UTF-8" standalone="no"?>
<!-- Created with Inkscape (http://www.inkscape.org/) -->

<svg
   xmlns:dc="http://purl.org/dc/elements/1.1/"
   xmlns:cc="http://creativecommons.org/ns#"
   xmlns:rdf="http://www.w3.org/1999/02/22-rdf-syntax-ns#"
   xmlns:svg="http://www.w3.org/2000/svg"
   xmlns="http://www.w3.org/2000/svg"
   xmlns:xlink="http://www.w3.org/1999/xlink"
   xmlns:sodipodi="http://sodipodi.sourceforge.net/DTD/sodipodi-0.dtd"
   xmlns:inkscape="http://www.inkscape.org/namespaces/inkscape"
   width="210mm"
   height="297mm"
   id="svg2"
   version="1.1"
   inkscape:version="0.47 r22583"
   sodipodi:docname="gst-mi.svg">
  <defs
     id="defs4">
    <inkscape:perspective
       sodipodi:type="inkscape:persp3d"
       inkscape:vp_x="0 : 526.18109 : 1"
       inkscape:vp_y="0 : 1000 : 0"
       inkscape:vp_z="744.09448 : 526.18109 : 1"
       inkscape:persp3d-origin="372.04724 : 350.78739 : 1"
       id="perspective10" />
    <linearGradient
       id="linearGradient4440">
      <stop
         id="stop4442"
         offset="0"
         style="stop-color:#7d7d7d;stop-opacity:1;" />
      <stop
         style="stop-color:#b1b1b1;stop-opacity:1.0000000;"
         offset="0.50000000"
         id="stop4448" />
      <stop
         id="stop4444"
         offset="1.0000000"
         style="stop-color:#686868;stop-opacity:1.0000000;" />
    </linearGradient>
    <linearGradient
       id="linearGradient4454">
      <stop
         id="stop4456"
         offset="0.0000000"
         style="stop-color:#729fcf;stop-opacity:0.20784314;" />
      <stop
         id="stop4458"
         offset="1.0000000"
         style="stop-color:#729fcf;stop-opacity:0.67619050;" />
    </linearGradient>
    <linearGradient
       id="linearGradient4467">
      <stop
         id="stop4469"
         offset="0"
         style="stop-color:#ffffff;stop-opacity:1;" />
      <stop
         id="stop4471"
         offset="1.0000000"
         style="stop-color:#ffffff;stop-opacity:0.24761905;" />
    </linearGradient>
    <linearGradient
       id="linearGradient2366">
      <stop
         style="stop-color:#ffffff;stop-opacity:1;"
         offset="0"
         id="stop2368" />
      <stop
         id="stop2374"
         offset="0.50000000"
         style="stop-color:#ffffff;stop-opacity:0.21904762;" />
      <stop
         style="stop-color:#ffffff;stop-opacity:1.0000000;"
         offset="1.0000000"
         id="stop2370" />
    </linearGradient>
    <linearGradient
       id="linearGradient2846">
      <stop
         style="stop-color:#8a8a8a;stop-opacity:1.0000000;"
         offset="0.0000000"
         id="stop2848" />
      <stop
         style="stop-color:#484848;stop-opacity:1.0000000;"
         offset="1.0000000"
         id="stop2850" />
    </linearGradient>
    <inkscape:perspective
       id="perspective47"
       inkscape:persp3d-origin="24 : 16 : 1"
       inkscape:vp_z="48 : 24 : 1"
       inkscape:vp_y="0 : 1000 : 0"
       inkscape:vp_x="0 : 24 : 1"
       sodipodi:type="inkscape:persp3d" />
    <linearGradient
       inkscape:collect="always"
       xlink:href="#linearGradient2502"
       id="linearGradient4387"
       gradientUnits="userSpaceOnUse"
       x1="2.7612331"
       y1="6.1102505"
       x2="18.772917"
       y2="18.693317"
       gradientTransform="translate(-0.599666,-0.578168)" />
    <linearGradient
       inkscape:collect="always"
       xlink:href="#linearGradient2502"
       id="linearGradient4385"
       gradientUnits="userSpaceOnUse"
       x1="2.7612331"
       y1="6.1102505"
       x2="18.772917"
       y2="18.693317" />
    <linearGradient
       inkscape:collect="always"
       xlink:href="#linearGradient3593"
       id="linearGradient3599"
       x1="10.678571"
       y1="15.928572"
       x2="7.9285712"
       y2="11.107142"
       gradientUnits="userSpaceOnUse" />
    <radialGradient
       inkscape:collect="always"
       xlink:href="#linearGradient3575"
       id="radialGradient3581"
       cx="24.642857"
       cy="44.285713"
       fx="24.642857"
       fy="44.285713"
       r="22.071428"
       gradientTransform="matrix(1.000000,0.000000,0.000000,0.207120,0.000000,35.11327)"
       gradientUnits="userSpaceOnUse" />
    <linearGradient
       inkscape:collect="always"
       xlink:href="#linearGradient2613"
       id="linearGradient2619"
       x1="5.4635010"
       y1="13.142847"
       x2="21.536488"
       y2="49.142849"
       gradientUnits="userSpaceOnUse" />
    <radialGradient
       inkscape:collect="always"
       xlink:href="#linearGradient2601"
       id="radialGradient2607"
       cx="27.216267"
       cy="35.673447"
       fx="27.216267"
       fy="35.673447"
       r="19.571430"
       gradientTransform="matrix(2.883137,5.542409e-23,8.493709e-23,2.136047,-64.96822,-52.48586)"
       gradientUnits="userSpaceOnUse" />
    <linearGradient
       id="linearGradient2502">
      <stop
         style="stop-color:#fdfdfd;stop-opacity:1;"
         offset="0"
         id="stop2504" />
      <stop
         style="stop-color:#d4d4d4;stop-opacity:1.0000000;"
         offset="1.0000000"
         id="stop2506" />
    </linearGradient>
    <linearGradient
       id="linearGradient2601">
      <stop
         style="stop-color:#5d5d5d;stop-opacity:1.0000000;"
         offset="0.0000000"
         id="stop2603" />
      <stop
         style="stop-color:#444444;stop-opacity:1.0000000;"
         offset="1.0000000"
         id="stop2605" />
    </linearGradient>
    <linearGradient
       inkscape:collect="always"
       id="linearGradient2613">
      <stop
         style="stop-color:#ffffff;stop-opacity:1;"
         offset="0"
         id="stop2615" />
      <stop
         style="stop-color:#ffffff;stop-opacity:0;"
         offset="1"
         id="stop2617" />
    </linearGradient>
    <linearGradient
       inkscape:collect="always"
       id="linearGradient3575">
      <stop
         style="stop-color:#000000;stop-opacity:1;"
         offset="0"
         id="stop3577" />
      <stop
         style="stop-color:#000000;stop-opacity:0;"
         offset="1"
         id="stop3579" />
    </linearGradient>
    <linearGradient
       id="linearGradient3593">
      <stop
         style="stop-color:#939393;stop-opacity:1;"
         offset="0"
         id="stop3595" />
      <stop
         style="stop-color:#d9d9d9;stop-opacity:1.0000000;"
         offset="1.0000000"
         id="stop3597" />
    </linearGradient>
    <linearGradient
       y2="609.50507"
       x2="302.85715"
       y1="366.64789"
       x1="302.85715"
       gradientTransform="matrix(2.774389,0,0,1.969706,-1892.179,-872.8854)"
       gradientUnits="userSpaceOnUse"
       id="linearGradient6715"
       xlink:href="#linearGradient5048"
       inkscape:collect="always" />
    <linearGradient
       id="linearGradient5048">
      <stop
         id="stop5050"
         offset="0"
         style="stop-color:black;stop-opacity:0;" />
      <stop
         style="stop-color:black;stop-opacity:1;"
         offset="0.5"
         id="stop5056" />
      <stop
         id="stop5052"
         offset="1"
         style="stop-color:black;stop-opacity:0;" />
    </linearGradient>
    <radialGradient
       r="117.14286"
       fy="486.64789"
       fx="605.71429"
       cy="486.64789"
       cx="605.71429"
       gradientTransform="matrix(2.774389,0,0,1.969706,-1891.633,-872.8854)"
       gradientUnits="userSpaceOnUse"
       id="radialGradient6717"
       xlink:href="#linearGradient5060"
       inkscape:collect="always" />
    <linearGradient
       id="linearGradient5060"
       inkscape:collect="always">
      <stop
         id="stop5062"
         offset="0"
         style="stop-color:black;stop-opacity:1;" />
      <stop
         id="stop5064"
         offset="1"
         style="stop-color:black;stop-opacity:0;" />
    </linearGradient>
    <radialGradient
       r="117.14286"
       fy="486.64789"
       fx="605.71429"
       cy="486.64789"
       cx="605.71429"
       gradientTransform="matrix(-2.774389,0,0,1.969706,112.7623,-872.8854)"
       gradientUnits="userSpaceOnUse"
       id="radialGradient6719"
       xlink:href="#linearGradient5060"
       inkscape:collect="always" />
    <inkscape:perspective
       id="perspective78"
       inkscape:persp3d-origin="24 : 16 : 1"
       inkscape:vp_z="48 : 24 : 1"
       inkscape:vp_y="0 : 1000 : 0"
       inkscape:vp_x="0 : 24 : 1"
       sodipodi:type="inkscape:persp3d" />
    <linearGradient
       inkscape:collect="always"
       xlink:href="#linearGradient2366"
       id="linearGradient3151"
       gradientUnits="userSpaceOnUse"
       x1="18.292673"
       y1="13.602121"
       x2="17.500893"
       y2="25.743469" />
    <radialGradient
       inkscape:collect="always"
       xlink:href="#linearGradient4454"
       id="radialGradient3155"
       gradientUnits="userSpaceOnUse"
       cx="18.240929"
       cy="21.817987"
       fx="18.240929"
       fy="21.817987"
       r="8.3085051" />
    <radialGradient
       inkscape:collect="always"
       xlink:href="#linearGradient4467"
       id="radialGradient3160"
       gradientUnits="userSpaceOnUse"
       gradientTransform="matrix(2.592963,0,0,2.252104,140.89333,267.15831)"
       cx="15.414371"
       cy="13.078408"
       fx="15.414371"
       fy="13.078408"
       r="6.6562500" />
    <linearGradient
       inkscape:collect="always"
       xlink:href="#linearGradient4440"
       id="linearGradient3167"
       gradientUnits="userSpaceOnUse"
       gradientTransform="matrix(1.334593,0,0,1.291292,158.97924,278.63865)"
       x1="30.656250"
       y1="34.000000"
       x2="33.218750"
       y2="31.062500" />
    <linearGradient
       inkscape:collect="always"
       xlink:href="#linearGradient2846"
       id="linearGradient3171"
       gradientUnits="userSpaceOnUse"
       x1="27.366341"
       y1="26.580296"
       x2="31.335964"
       y2="30.557772"
       gradientTransform="translate(165.95308,286.09931)" />
  </defs>
  <sodipodi:namedview
     id="base"
     pagecolor="#ffffff"
     bordercolor="#666666"
     borderopacity="1.0"
     inkscape:pageopacity="0.0"
     inkscape:pageshadow="2"
     inkscape:zoom="1.5949367"
     inkscape:cx="130.25595"
     inkscape:cy="684.35317"
     inkscape:document-units="px"
     inkscape:current-layer="layer1"
     showgrid="false"
     inkscape:window-width="866"
     inkscape:window-height="695"
     inkscape:window-x="969"
     inkscape:window-y="24"
     inkscape:window-maximized="0" />
  <metadata
     id="metadata7">
    <rdf:RDF>
      <cc:Work
         rdf:about="">
        <dc:format>image/svg+xml</dc:format>
        <dc:type
           rdf:resource="http://purl.org/dc/dcmitype/StillImage" />
        <dc:title></dc:title>
      </cc:Work>
    </rdf:RDF>
  </metadata>
  <g
     inkscape:label="Ebene 1"
     inkscape:groupmode="layer"
     id="layer1">
    <g
       id="g3067"
       inkscape:export-filename="/home/ensonic/projects/gstreamer/gst-mediainfo/src/gst-mi.png"
       inkscape:export-xdpi="106.52"
       inkscape:export-ydpi="106.52">
      <g
         transform="translate(66.654752,358.38807)"
         inkscape:label="Layer 1"
         id="layer1-0">
        <g
           transform="matrix(0.0233489,0,0,0.02086758,45.33878,41.86789)"
           id="g6707">
          <rect
             style="opacity:0.40206185;color:#000000;fill:url(#linearGradient6715);fill-opacity:1;fill-rule:nonzero;stroke:none;stroke-width:1;marker:none;visibility:visible;display:inline;overflow:visible"
             id="rect6709"
             width="1339.6335"
             height="478.35718"
             x="-1559.2523"
             y="-150.69685" />
          <path
             style="opacity:0.40206185;color:#000000;fill:url(#radialGradient6717);fill-opacity:1;fill-rule:nonzero;stroke:none;stroke-width:1;marker:none;visibility:visible;display:inline;overflow:visible"
             d="m -219.61876,-150.68038 c 0,0 0,478.33079 0,478.33079 142.874166,0.90045 345.40022,-107.16966 345.40014,-239.196175 0,-132.026537 -159.436816,-239.134595 -345.40014,-239.134615 z"
             id="path6711"
             sodipodi:nodetypes="cccc" />
          <path
             sodipodi:nodetypes="cccc"
             id="path6713"
             d="m -1559.2523,-150.68038 c 0,0 0,478.33079 0,478.33079 -142.8742,0.90045 -345.4002,-107.16966 -345.4002,-239.196175 0,-132.026537 159.4368,-239.134595 345.4002,-239.134615 z"
             style="opacity:0.40206185;color:#000000;fill:url(#radialGradient6719);fill-opacity:1;fill-rule:nonzero;stroke:none;stroke-width:1;marker:none;visibility:visible;display:inline;overflow:visible" />
        </g>
        <rect
           ry="1.1428572"
           rx="1.1428572"
           y="16.57143"
           x="5.4285707"
           height="27.999996"
           width="38.14286"
           id="rect1440"
           style="color:#000000;fill:url(#radialGradient2607);fill-opacity:1;fill-rule:nonzero;stroke:#1b1b1b;stroke-width:1;stroke-linecap:butt;stroke-linejoin:miter;stroke-miterlimit:4;stroke-opacity:1;stroke-dasharray:none;stroke-dashoffset:0;marker:none;visibility:visible;display:block" />
        <rect
           style="opacity:0.31155778;color:#000000;fill:none;stroke:url(#linearGradient2619);stroke-width:0.99999964;stroke-linecap:butt;stroke-linejoin:miter;stroke-miterlimit:4;stroke-opacity:1;stroke-dasharray:none;stroke-dashoffset:0;marker:none;visibility:visible;display:block"
           id="rect2609"
           width="36.072987"
           height="26.060221"
           x="6.3920727"
           y="17.489294"
           rx="0.27372196"
           ry="0.27372196" />
        <g
           transform="matrix(-0.97271,0.232023,0.232023,0.97271,45.78579,5.110631)"
           id="g4376">
          <rect
             transform="matrix(0.974407,-0.22479,0.22479,0.974407,0,0)"
             ry="1.1428572"
             rx="1.1428572"
             y="10.35317"
             x="1.7052064"
             height="6.50879"
             width="39.805996"
             id="rect4362"
             style="color:#000000;fill:url(#linearGradient4385);fill-opacity:1;fill-rule:nonzero;stroke:#2b2b2b;stroke-width:1.00000024;stroke-linecap:butt;stroke-linejoin:miter;stroke-miterlimit:4;stroke-opacity:1;stroke-dasharray:none;stroke-dashoffset:0;marker:none;visibility:visible;display:block" />
          <path
             sodipodi:nodetypes="ccccc"
             id="path4364"
             d="M 9.1896391,8.9691823 6.7610675,15.540611 11.475352,14.254897 13.903923,7.9691824 9.1896391,8.9691823 z"
             style="fill:#000000;fill-opacity:1;fill-rule:evenodd;stroke:none" />
          <path
             style="fill:#000000;fill-opacity:1;fill-rule:evenodd;stroke:none"
             d="m 18.332496,6.8977538 -2.285715,6.5000002 4.714286,-1.142857 2.285714,-6.3571431 -4.714285,0.9999999 z"
             id="path4366"
             sodipodi:nodetypes="ccccc" />
          <path
             sodipodi:nodetypes="ccccc"
             id="path4368"
             d="M 27.903923,4.6834682 25.618208,11.11204 30.332494,9.9691828 32.618208,3.6834683 27.903923,4.6834682 z"
             style="fill:#000000;fill-opacity:1;fill-rule:evenodd;stroke:none" />
          <path
             sodipodi:nodetypes="ccccccc"
             id="path4370"
             d="m 39.412852,2.0182896 c 0.229074,0.1560539 0.401242,0.3636209 0.46875,0.65625 l 0.732143,3.0758928 -0.723214,2 -4.6875,1.0848214 2.28125,-6.3571428 1.928571,-0.4598214 z"
             style="color:#000000;fill:#000000;fill-opacity:1;fill-rule:nonzero;stroke:none;stroke-width:1;marker:none;visibility:visible;display:block" />
          <rect
             style="color:#000000;fill:none;stroke:#ffffff;stroke-width:1;stroke-linecap:butt;stroke-linejoin:miter;stroke-miterlimit:4;stroke-opacity:0.57512949;stroke-dasharray:none;stroke-dashoffset:0;marker:none;visibility:visible;display:block"
             id="rect4372"
             width="37.842842"
             height="4.6068902"
             x="2.6716552"
             y="11.327118"
             rx="0.26506385"
             ry="0.26506385"
             transform="matrix(0.974407,-0.22479,0.22479,0.974407,0,0)" />
        </g>
        <rect
           transform="matrix(0.974407,-0.22479,0.22479,0.974407,0,0)"
           ry="1.1428553"
           rx="1.1428553"
           y="9.6851511"
           x="0.67043102"
           height="6.9415727"
           width="40.077335"
           id="rect2200"
           style="color:#000000;fill:url(#linearGradient4387);fill-opacity:1;fill-rule:nonzero;stroke:#2e2e2e;stroke-width:0.99999833;stroke-linecap:butt;stroke-linejoin:miter;stroke-miterlimit:4;stroke-opacity:1;stroke-dasharray:none;stroke-dashoffset:0;marker:none;visibility:visible;display:block" />
        <path
           sodipodi:nodetypes="ccccc"
           id="path2202"
           d="M 10.142858,8.1428571 7.7142859,14.714286 12.428572,13.428572 14.857143,7.1428572 10.142858,8.1428571 z"
           style="fill:#000000;fill-opacity:1;fill-rule:evenodd;stroke:none" />
        <path
           style="fill:#000000;fill-opacity:1;fill-rule:evenodd;stroke:none"
           d="m 19.428573,5.7857143 -2.642858,7.0000007 4.714286,-1.142857 2.642857,-6.8571436 -4.714285,0.9999999 z"
           id="path2204"
           sodipodi:nodetypes="ccccc" />
        <path
           sodipodi:nodetypes="ccccc"
           id="path2206"
           d="m 29.071429,3.6428573 -2.57143,7.1428577 4.714286,-1.1428574 2.571429,-7.0000002 -4.714285,0.9999999 z"
           style="fill:#000000;fill-opacity:1;fill-rule:evenodd;stroke:none" />
        <path
           sodipodi:nodetypes="ccccccc"
           id="rect2210"
           d="m 41.294643,0.97767869 c 0.229074,0.15605391 0.401242,0.36362091 0.46875,0.65625001 l 0.660714,2.6473214 -1.080356,2.7857143 -5.116071,1.2276785 2.352678,-6.7142857 2.714285,-0.60267851 z"
           style="color:#000000;fill:#000000;fill-opacity:1;fill-rule:nonzero;stroke:none;stroke-width:1;marker:none;visibility:visible;display:block" />
        <rect
           style="color:#000000;fill:none;stroke:#ffffff;stroke-width:0.99999809;stroke-linecap:butt;stroke-linejoin:miter;stroke-miterlimit:4;stroke-opacity:0.57512949;stroke-dasharray:none;stroke-dashoffset:0;marker:none;visibility:visible;display:block"
           id="rect2510"
           width="38.199306"
           height="4.9147058"
           x="1.6368761"
           y="10.659099"
           rx="0.26506338"
           ry="0.26506338"
           transform="matrix(0.974407,-0.22479,0.22479,0.974407,0,0)" />
        <path
           sodipodi:nodetypes="ccccccc"
           id="path3583"
           d="m 6.5357143,10.892862 0,7.785714 c 0,0.464286 0.3928571,0.892858 0.8571428,0.928572 l 7.8928559,0 c 0.863664,0 1.273862,-1.261852 0.607142,-1.928572 L 9.6785715,10.392862 c -0.9642858,-1.3928571 -3.1428572,-0.7142856 -3.1428572,0.5 z"
           style="fill:url(#linearGradient3599);fill-opacity:1;fill-rule:evenodd;stroke:#1b1b1b;stroke-width:1;stroke-linecap:butt;stroke-linejoin:miter;stroke-miterlimit:4;stroke-opacity:1;stroke-dasharray:none" />
        <path
           transform="translate(-0.07142886,-4.964285)"
           d="m 9.0357146,17.196428 c 0,0.26628 -0.2158627,0.482143 -0.4821429,0.482143 -0.2662802,0 -0.4821429,-0.215863 -0.4821429,-0.482143 0,-0.26628 0.2158627,-0.482143 0.4821429,-0.482143 0.2662802,0 0.4821429,0.215863 0.4821429,0.482143 z"
           sodipodi:ry="0.48214287"
           sodipodi:rx="0.48214287"
           sodipodi:cy="17.196428"
           sodipodi:cx="8.5535717"
           id="path3587"
           style="color:#000000;fill:#ffffff;fill-opacity:1;fill-rule:nonzero;stroke:none;stroke-width:1;marker:none;visibility:visible;display:block"
           sodipodi:type="arc" />
        <path
           sodipodi:type="arc"
           style="color:#000000;fill:#ffffff;fill-opacity:1;fill-rule:nonzero;stroke:none;stroke-width:1;marker:none;visibility:visible;display:block"
           id="path3589"
           sodipodi:cx="8.5535717"
           sodipodi:cy="17.196428"
           sodipodi:rx="0.48214287"
           sodipodi:ry="0.48214287"
           d="m 9.0357146,17.196428 c 0,0.26628 -0.2158627,0.482143 -0.4821429,0.482143 -0.2662802,0 -0.4821429,-0.215863 -0.4821429,-0.482143 0,-0.26628 0.2158627,-0.482143 0.4821429,-0.482143 0.2662802,0 0.4821429,0.215863 0.4821429,0.482143 z"
           transform="translate(-0.07142884,0.321429)" />
        <path
           transform="translate(4.964285,0.321429)"
           d="m 9.0357146,17.196428 c 0,0.26628 -0.2158627,0.482143 -0.4821429,0.482143 -0.2662802,0 -0.4821429,-0.215863 -0.4821429,-0.482143 0,-0.26628 0.2158627,-0.482143 0.4821429,-0.482143 0.2662802,0 0.4821429,0.215863 0.4821429,0.482143 z"
           sodipodi:ry="0.48214287"
           sodipodi:rx="0.48214287"
           sodipodi:cy="17.196428"
           sodipodi:cx="8.5535717"
           id="path3591"
           style="color:#000000;fill:#ffffff;fill-opacity:1;fill-rule:nonzero;stroke:none;stroke-width:1;marker:none;visibility:visible;display:block"
           sodipodi:type="arc" />
        <g
           transform="translate(0,4)"
           style="opacity:0.26130652"
           id="g3629">
          <path
             style="fill:none;stroke:#ffffff;stroke-width:1;stroke-linecap:butt;stroke-linejoin:miter;stroke-miterlimit:4;stroke-opacity:1;stroke-dasharray:none"
             d="m 10,28.428571 28,0"
             id="path3601" />
          <path
             style="fill:none;stroke:#ffffff;stroke-width:1;stroke-linecap:butt;stroke-linejoin:miter;stroke-miterlimit:4;stroke-opacity:1;stroke-dasharray:none"
             d="m 10,32.571424 28,0"
             id="path3603" />
          <path
             style="fill:none;stroke:#ffffff;stroke-width:1;stroke-linecap:butt;stroke-linejoin:miter;stroke-miterlimit:4;stroke-opacity:1;stroke-dasharray:none"
             d="m 32.5,28 0,-4"
             id="path3607" />
          <path
             style="fill:none;stroke:#ffffff;stroke-width:1;stroke-linecap:butt;stroke-linejoin:miter;stroke-miterlimit:4;stroke-opacity:1;stroke-dasharray:none"
             d="m 10,32.571424 28,0"
             id="path3605" />
          <path
             style="fill:none;stroke:#ffffff;stroke-width:1;stroke-linecap:butt;stroke-linejoin:miter;stroke-miterlimit:4;stroke-opacity:1;stroke-dasharray:none"
             d="m 22.5,28 0,-4"
             id="path3611" />
          <path
             id="path3615"
             d="m 9.7429344,36.571424 13.2998316,0"
             style="fill:none;stroke:#ffffff;stroke-width:0.9999997;stroke-linecap:butt;stroke-linejoin:miter;stroke-miterlimit:4;stroke-opacity:1;stroke-dasharray:none" />
        </g>
        <g
           transform="matrix(0.688056,0,0,0.688056,11.98189,14.73331)"
           style="fill:#ffffff;fill-opacity:1"
           id="g3680">
          <path
             style="fill:#ffffff;fill-opacity:1;fill-rule:nonzero;stroke:none"
             id="path3674"
             d="m 13.817087,27.83871 c 0.113601,0.965157 0.244861,1.927714 0.394926,2.887925 l -2.107716,1.115321 C 11.971325,30.898587 11.859805,29.948673 11.653276,29.01819 l 2.163811,-1.17948 z" />
          <path
             style="fill:#ffffff;fill-opacity:1;fill-rule:nonzero;stroke:none"
             id="path3676"
             d="m 17.665061,28.673198 c -0.02417,2.079247 0.678,1.192783 -1.910963,2.589105 0.815412,-1.303562 2.191632,-2.618366 3.548625,-1.445006 2.591189,0.421672 -1.433848,2.481989 0.355171,0.314327 2.600013,-2.269865 2.222306,-0.997521 4.404319,-0.868565 1.780222,0.430207 1.796194,0.05633 -0.570253,1.416663 0.03203,-0.02793 0.06406,-0.05585 0.09609,-0.08377 l 2.238621,-0.946961 c -0.02529,0.03869 -0.05058,0.07738 -0.07587,0.116068 -2.811349,1.677475 -1.668398,1.183753 -3.647289,0.92631 -1.86635,-0.327685 -2.87539,-0.553295 -0.220839,-1.484714 -1.139443,1.293919 -2.981215,3.299891 -4.618598,1.882935 -1.588509,-1.170545 2.132535,-2.413333 0.764613,-0.73098 -2.682553,1.478611 -2.400461,1.55186 -2.560742,-0.565921 l 2.197119,-1.119488 z" />
          <path
             style="fill:#ffffff;fill-opacity:1;fill-rule:nonzero;stroke:none"
             id="path3678"
             d="m 29.174994,26.230789 c 0.14593,1.507956 0.225786,3.019542 0.405142,4.524683 1.423472,1.850746 -1.826977,4.633968 -1.347225,1.808834 0.342081,-3.243811 0.650319,-3.84417 3.528747,-4.879984 0.547689,0.983343 0.847731,2.137946 1.704024,2.727959 -4.840075,2.551671 1.693745,-1.481215 2.420946,-1.867341 0.464921,-0.109143 0.939853,-0.165325 1.412287,-0.230751 l -1.920756,1.437314 c -0.464844,0.06807 -0.935057,0.1189 -1.384984,0.261165 2.998581,-1.911568 -0.568404,0.841891 -2.506019,1.817551 -0.923746,-0.724224 -1.143464,-1.894425 -1.783232,-2.880314 3.14599,-2.218804 0.63263,-0.141231 0.637903,2.577332 -0.28354,2.350093 -3.320174,3.549885 -2.814981,0.306459 -0.172764,-1.481806 -0.250004,-2.982368 -0.530099,-4.447333 l 2.178247,-1.155574 z" />
        </g>
        <g
           transform="matrix(1.013963,0,0,1.013963,1.878556,5.469083)"
           id="g3755">
          <path
             style="fill:#ffffff;fill-opacity:1;fill-rule:nonzero;stroke:none"
             id="path3693"
             d="m 11.316278,22.373912 c 1.820856,-1.333208 1.127169,-0.281091 1.128436,1.146858 -0.01466,1.286348 0.175884,2.556881 0.462421,3.806594 l -1.262911,0.682145 c -0.287161,-1.259893 -0.47939,-2.540337 -0.475327,-3.836434 -0.01981,-1.552781 -0.288652,-1.952637 1.347165,-2.670858 l -1.199784,0.871695 z" />
          <path
             style="fill:#ffffff;fill-opacity:1;fill-rule:nonzero;stroke:none"
             id="path3695"
             d="m 15.610946,22.413179 c -0.02437,0.790304 -0.02398,1.581273 -0.02699,2.3719 -0.0011,0.331934 -0.001,0.663869 -0.0013,0.995804 l -1.264717,0.644405 c -3.07e-4,-0.33148 -2.58e-4,-0.66296 -0.0013,-0.994439 -0.003,-0.781455 -0.0024,-1.563275 -0.02699,-2.344395 l 1.321376,-0.673275 z" />
          <path
             style="fill:#ffffff;fill-opacity:1;fill-rule:nonzero;stroke:none"
             id="path3697"
             d="m 17.833281,21.200996 c 0.09877,0.796352 0.117107,1.655155 0.145148,2.472831 0.008,0.24117 0.0132,0.482416 0.01979,0.723625 l -1.257551,0.645191 c -0.0078,-0.240127 -0.0132,-0.480333 -0.02347,-0.72038 -0.03579,-0.815108 -0.04172,-1.648209 -0.205301,-2.447992 l 1.321376,-0.673275 z" />
          <path
             style="fill:#ffffff;fill-opacity:1;fill-rule:nonzero;stroke:none"
             id="path3699"
             d="m 20.257647,20.594904 c -0.196164,0.682214 -0.268848,1.395879 -0.337656,2.103621 -0.0674,0.761239 -0.09762,1.524887 -0.128658,2.288229 l -1.257113,0.634694 c 0.02996,-0.763385 0.05957,-1.526914 0.115545,-2.288959 0.05537,-0.688124 0.083,-1.405566 0.286506,-2.06431 l 1.321376,-0.673275 z" />
          <path
             style="fill:#ffffff;fill-opacity:1;fill-rule:nonzero;stroke:none"
             id="path3701"
             d="m 9.8969255,22.310339 c 0.9067235,0.190928 1.8267775,0.348564 2.7421905,0.503737 2.149945,0.332152 4.306576,0.626935 6.468095,0.873614 0.903938,0.09251 1.807226,0.19028 2.709599,0.296728 l -1.16802,0.826398 C 19.754597,24.700327 18.859587,24.597014 17.963955,24.498588 15.801624,24.238152 13.642863,23.943889 11.488982,23.62143 10.560864,23.472229 9.6271038,23.290017 8.6971411,23.182034 l 1.1997844,-0.871695 z" />
        </g>
      </g>
    </g>
    <g
       id="g3174"
       transform="translate(-89.65873,82.880952)"
       inkscape:export-filename="/home/ensonic/projects/gstreamer/gst-mediainfo/src/gst-mi.png"
       inkscape:export-xdpi="106.52"
       inkscape:export-ydpi="106.52">
      <path
         sodipodi:nodetypes="csscccscccscczzzz"
         id="path2844"
         d="m 184.58065,289.24286 c -8.13913,0 -14.7448,6.60568 -14.7448,14.74481 0,8.13913 6.60567,14.7448 14.7448,14.7448 3.47955,0 6.551,-1.3844 9.07372,-3.40265 -0.20538,1.00688 -0.078,2.03537 0.75615,2.75993 l 10.96408,9.52741 c 1.23342,1.07133 3.08746,0.93096 4.15879,-0.30246 1.07133,-1.23342 0.93096,-3.08746 -0.30246,-4.15879 l -10.96408,-9.52741 c -0.67153,-0.58328 -1.49288,-0.75597 -2.30624,-0.64272 1.9867,-2.51243 3.36484,-5.54881 3.36484,-8.99811 0,-8.13913 -6.60567,-14.74481 -14.7448,-14.74481 z m -0.0756,1.22619 c 7.63946,0 13.29177,4.78895 13.29177,13.29177 0,8.67512 -5.81669,13.29178 -13.29177,13.29178 -7.30295,0 -13.29177,-5.47809 -13.29177,-13.29178 0,-7.9841 5.82463,-13.29177 13.29177,-13.29177 z"
         style="color:#000000;fill:#dcdcdc;fill-opacity:1;fill-rule:evenodd;stroke:url(#linearGradient3171);stroke-width:2.00000095;stroke-linecap:round;stroke-linejoin:miter;stroke-miterlimit:10;stroke-opacity:1;stroke-dasharray:none;stroke-dashoffset:0;marker:none;visibility:visible;display:inline;overflow:visible" />
      <path
         style="color:#000000;fill:#dcdcdc;fill-opacity:1;fill-rule:evenodd;stroke:none;stroke-width:1.00000036;marker:none;visibility:visible;display:inline;overflow:visible"
         d="m 184.55598,289.17967 c -8.16544,0 -14.79246,6.62702 -14.79246,14.79246 0,8.16544 6.62702,14.79246 14.79246,14.79246 3.49081,0 6.57218,-1.38886 9.10306,-3.41364 -0.20604,1.01013 -0.0783,2.04194 0.75859,2.76884 l 10.99952,9.55821 c 1.23741,1.07479 3.09744,0.93397 4.17224,-0.30343 1.07479,-1.23741 0.93396,-3.09745 -0.30344,-4.17224 l -10.99952,-9.5582 c -0.6737,-0.58517 -1.49771,-0.75842 -2.3137,-0.6448 1.99312,-2.52055 3.37572,-5.56674 3.37572,-9.0272 0,-8.16544 -6.62703,-14.79246 -14.79247,-14.79246 z m -0.0759,3.18606 c 6.28111,0 11.37882,5.09771 11.37882,11.37882 0,6.28111 -5.09771,11.37882 -11.37882,11.37882 -6.2811,0 -11.37881,-5.09771 -11.37881,-11.37882 0,-6.28111 5.09771,-11.37882 11.37881,-11.37882 z"
         id="path4430" />
      <path
         style="color:#000000;fill:url(#linearGradient3167);fill-opacity:1;fill-rule:evenodd;stroke:none;stroke-width:1;marker:none;visibility:visible;display:inline;overflow:visible"
         d="m 205.46008,327.677 c -0.47867,-2.27319 1.39733,-4.81142 3.58406,-4.78838 0,0 -10.76037,-9.25811 -10.76037,-9.25811 -2.94479,-0.0567 -4.2695,2.27262 -3.77681,4.59993 l 10.95312,9.44656 z"
         id="path4438"
         sodipodi:nodetypes="ccccc" />
      <path
         sodipodi:type="arc"
         style="color:#000000;fill:none;stroke:url(#linearGradient3151);stroke-width:0.8027336;stroke-linecap:round;stroke-linejoin:miter;stroke-miterlimit:10;stroke-opacity:1;stroke-dasharray:none;stroke-dashoffset:0;marker:none;visibility:visible;display:inline;overflow:visible"
         id="path4450"
         sodipodi:cx="17.500893"
         sodipodi:cy="18.920233"
         sodipodi:rx="11.048544"
         sodipodi:ry="11.048544"
         d="m 28.549437,18.920233 c 0,6.101942 -4.946602,11.048544 -11.048544,11.048544 -6.101943,0 -11.0485443,-4.946602 -11.0485443,-11.048544 0,-6.101943 4.9466013,-11.0485442 11.0485443,-11.0485442 6.101942,0 11.048544,4.9466012 11.048544,11.0485442 z"
         transform="matrix(1.245743,0,0,1.245743,162.52773,279.92228)" />
      <rect
         style="opacity:0.43315507;color:#000000;fill:none;stroke:#ffffff;stroke-width:1.00003123;stroke-linecap:round;stroke-linejoin:miter;stroke-miterlimit:10;stroke-opacity:1;stroke-dasharray:none;stroke-dashoffset:0;marker:none;visibility:visible;display:inline;overflow:visible"
         id="rect4495"
         width="19.048445"
         height="4.4404783"
         x="352.31552"
         y="106.37407"
         rx="2.1366615"
         ry="1.8879365"
         transform="matrix(0.75298577,0.6580368,-0.648902,0.760872,0,0)" />
      <path
         sodipodi:type="arc"
         style="color:#000000;fill:url(#radialGradient3155);fill-opacity:1;fill-rule:evenodd;stroke:#3063a3;stroke-width:0.71499395;stroke-linecap:round;stroke-linejoin:miter;stroke-miterlimit:10;stroke-opacity:1;stroke-dashoffset:0;marker:none;visibility:visible"
         id="path4452"
         sodipodi:cx="17.589281"
         sodipodi:cy="18.478292"
         sodipodi:rx="8.3085051"
         sodipodi:ry="8.3085051"
         d="m 25.897786,18.478292 c 0,4.588661 -3.719844,8.308506 -8.308505,8.308506 -4.588661,0 -8.308505,-3.719845 -8.308505,-8.308506 0,-4.58866 3.719844,-8.308505 8.308505,-8.308505 4.588661,0 8.308505,3.719845 8.308505,8.308505 z"
         transform="matrix(1.398614,0,0,1.398614,159.72874,277.80035)" />
      <path
         style="opacity:0.83422457;color:#000000;fill:url(#radialGradient3160);fill-opacity:1;fill-rule:evenodd;stroke:none;stroke-width:1;marker:none;visibility:visible;display:inline;overflow:visible"
         d="m 184.10999,293.496 c -5.20759,0 -9.42454,4.21696 -9.42454,9.42455 0,1.50398 0.42031,2.88777 1.04717,4.1499 1.25238,0.46162 2.58276,0.77569 3.99477,0.77569 6.17095,0 11.09928,-4.86164 11.4801,-10.93713 -1.73096,-2.04553 -4.21004,-3.41301 -7.0975,-3.41301 z"
         id="path4462" />
    </g>
  </g>
</svg>
