/* XPM */
static char * bin_xpm[] = {
"21 21 116 2",
"  	c None",
". 	c #7B7B7B",
"+ 	c #D6D6D6",
"@ 	c #E5E3DF",
"# 	c #CAC6BF",
"$ 	c #EBEAE7",
"% 	c #000000",
"& 	c #FFFFFF",
"* 	c #DBD8D4",
"= 	c #B4AEA5",
"- 	c #867C6D",
"; 	c #544C3F",
"> 	c #726755",
", 	c #796E5D",
"' 	c #A6A096",
") 	c #C8C4BC",
"! 	c #C1BFB9",
"~ 	c #867F6F",
"{ 	c #514238",
"] 	c #706757",
"^ 	c #5C5446",
"/ 	c #706A5F",
"( 	c #B8B6B1",
"_ 	c #E2E2E0",
": 	c #9A9178",
"< 	c #D2C398",
"[ 	c #AB9976",
"} 	c #907F68",
"| 	c #716150",
"1 	c #685F51",
"2 	c #706656",
"3 	c #796F5D",
"4 	c #817562",
"5 	c #9B8C76",
"6 	c #867B6A",
"7 	c #645F55",
"8 	c #AAA492",
"9 	c #CEBF94",
"0 	c #D4C494",
"a 	c #D3C494",
"b 	c #D4C396",
"c 	c #C9B48D",
"d 	c #7B6B55",
"e 	c #6E5F50",
"f 	c #8C7F6A",
"g 	c #9B8C75",
"h 	c #9C8C74",
"i 	c #9C8C73",
"j 	c #9A8A74",
"k 	c #D2D1CE",
"l 	c #A69E84",
"m 	c #D1C293",
"n 	c #D4C493",
"o 	c #C2B58B",
"p 	c #756C52",
"q 	c #544B39",
"r 	c #92846E",
"s 	c #92846F",
"t 	c #605749",
"u 	c #D9D7D0",
"v 	c #908970",
"w 	c #C8BA90",
"x 	c #D3C395",
"y 	c #797153",
"z 	c #827B62",
"A 	c #6E634F",
"B 	c #574E3F",
"C 	c #9B8B73",
"D 	c #988872",
"E 	c #685E4E",
"F 	c #443F35",
"G 	c #272621",
"H 	c #8B887E",
"I 	c #716A50",
"J 	c #867C5C",
"K 	c #A89C7A",
"L 	c #696249",
"M 	c #988F72",
"N 	c #84775F",
"O 	c #544C3D",
"P 	c #726959",
"Q 	c #49453B",
"R 	c #4E4A3F",
"S 	c #423E35",
"T 	c #AAA9A2",
"U 	c #9F987F",
"V 	c #857E63",
"W 	c #655E46",
"X 	c #92896B",
"Y 	c #AAA080",
"Z 	c #81735A",
"` 	c #7C725F",
" .	c #47443B",
"..	c #625C4E",
"+.	c #897E6D",
"@.	c #A29E98",
"#.	c #C3C0BA",
"$.	c #8D8777",
"%.	c #A2987B",
"&.	c #A99C7A",
"*.	c #B4A885",
"=.	c #7E7157",
"-.	c #928570",
";.	c #544F44",
">.	c #6E675A",
",.	c #7E786D",
"'.	c #C3C1BB",
").	c #9D947D",
"!.	c #AEA182",
"~.	c #887A63",
"{.	c #867A68",
"].	c #7E796F",
"^.	c #AFADAA",
"/.	c #BDB9AE",
"(.	c #A09A91",
"_.	c #CECBC8",
"                                          ",
"                                          ",
"                                          ",
". . . . . . . . . . . . . . . . . . .     ",
". + + + + + + + + + + @ # $ + + + + . %   ",
". + . & . . & & * = - ; ; > , ' ) & . %   ",
". + . . . . ! ~ { > > ; ; ; ; ] ^ / ( %   ",
". + & & & _ : < [ } | > ; 1 2 3 4 5 6 7   ",
". + & & & 8 9 0 a b c d e f g h i i j 7   ",
". + & & k l m n n 0 o p q r i i i s t 7   ",
". + & & & u v w a x y z A B C D E F G %   ",
". + & & & & H I J K L M N O P ; Q R S %   ",
". + & & & & T U V W X Y Z `  . ...+.@.%   ",
". + + + + + + #.$.%.&.*.=.-.;.>.,.@.. %   ",
". + % + & + % % . '.).!.~.{.].^.& & . %   ",
". + % % . + % % . + & /.(._.& & & & . %   ",
". + % + & + % % . + & & & & & & & & . %   ",
". . . . . . . . . . . . . . . . . . . %   ",
"  % % % % % % % % % % % % % % % % % % %   ",
"                                          ",
"                                          "};
