/* XPM */
static char * pipeline_xpm[] = {
"21 21 94 2",
"  	c None",
". 	c #7B7B7B",
"+ 	c #A8ABA5",
"@ 	c #D6D6D6",
"# 	c #CACBC9",
"$ 	c #424B3B",
"% 	c #819373",
"& 	c #606959",
"* 	c #000000",
"= 	c #FFFFFF",
"- 	c #C5C6C4",
"; 	c #475242",
"> 	c #99AF87",
", 	c #667855",
"' 	c #4C5641",
") 	c #A0A19E",
"! 	c #C8C7C5",
"~ 	c #4E5847",
"{ 	c #96AE85",
"] 	c #7B9369",
"^ 	c #58664B",
"/ 	c #373A32",
"( 	c #C1C2C0",
"_ 	c #3A382F",
": 	c #97AE86",
"< 	c #7E996B",
"[ 	c #5D6E4F",
"} 	c #31362C",
"| 	c #D1D2CF",
"1 	c #C6C7C5",
"2 	c #6A7261",
"3 	c #757E68",
"4 	c #8A9778",
"5 	c #627651",
"6 	c #607252",
"7 	c #32382D",
"8 	c #CCCCCA",
"9 	c #7B8571",
"0 	c #ADC29C",
"a 	c #A6BE95",
"b 	c #889B74",
"c 	c #586A47",
"d 	c #343B2D",
"e 	c #B8B8B8",
"f 	c #91948E",
"g 	c #A7BA96",
"h 	c #9EB78D",
"i 	c #8AA079",
"j 	c #6D8459",
"k 	c #5A6B4D",
"l 	c #7E7F7B",
"m 	c #606355",
"n 	c #889976",
"o 	c #768A65",
"p 	c #687D57",
"q 	c #697D57",
"r 	c #525A48",
"s 	c #CFCFCD",
"t 	c #7B8177",
"u 	c #93A685",
"v 	c #748C60",
"w 	c #5C6F4C",
"x 	c #697A5A",
"y 	c #4F5A44",
"z 	c #A1A39D",
"A 	c #878E83",
"B 	c #A0B094",
"C 	c #92AC80",
"D 	c #6B825A",
"E 	c #3E4934",
"F 	c #464940",
"G 	c #B1B1AE",
"H 	c #8C9385",
"I 	c #8A987D",
"J 	c #9AB188",
"K 	c #6C825A",
"L 	c #525E46",
"M 	c #6F726B",
"N 	c #A8A8A5",
"O 	c #7E8676",
"P 	c #91A282",
"Q 	c #5D6F4D",
"R 	c #556148",
"S 	c #666960",
"T 	c #B6B6B4",
"U 	c #45463E",
"V 	c #556049",
"W 	c #58644B",
"X 	c #65675E",
"Y 	c #E1E1E1",
"Z 	c #A9A9A6",
"` 	c #3C3D34",
" .	c #5C5E56",
"..	c #1F1F1F",
"                                          ",
"                                          ",
"                                          ",
". . . . . . . . . . . . . . . + + + .     ",
". @ @ @ @ @ @ @ @ @ @ @ @ @ # $ % & + *   ",
". @ . = . . = = = = = = = - ; > , ' ) *   ",
". @ . . . . . = = = = = ! ~ { ] ^ / + *   ",
". @ = = = = = = = = = ( _ : < [ } | . *   ",
". @ = = = = = = = 1 2 3 4 5 6 7 ( = . *   ",
". @ = = = = = = 8 9 0 a b c d e = = . *   ",
". @ = = = = = = f g h i j k l = = = . *   ",
". @ = = = = = = m n o p q r s = = = . *   ",
". @ = = = = = t u v w x y z = = = = . *   ",
". @ @ @ @ @ A B C D E F G = = = = = . *   ",
". @ * @ = H I J K L M = = = = = = = . *   ",
". @ * * N O P Q R S = = = = = = = = . *   ",
". @ * @ T U V W X Y = = = = = = = = . *   ",
". . . . . Z `  .+ . . . . . . . . . . *   ",
"  * * * * * . ..* * * * * * * * * * * *   ",
"                                          ",
"                                          "};
