/* XPM */
static char *selector_xpm[] = {
/* columns rows colors chars-per-pixel */
"21 21 3 1",
"  c Gray0",
". c #b3cece",
"X c None",
/* pixels */
"XXXXXXXXXXXXXXXXXXXXX",
"XXXXXXXXXXXXXXXXXXXXX",
"XXXXXX XXXXXXXXXXXXXX",
"XXXXXX  XXXXXXXXXXXXX",
"XXXXXX   XXXXXXXXXXXX",
"XXXXXX    XXXXXXXXXXX",
"XXXXXX     XXXXXXXXXX",
"XXXXXX      XXXXXXXXX",
"XXXXXX       XXXXXXXX",
"XXXXXX        XXXXXXX",
"XXXXXX         XXXXXX",
"XXXXXX      XXXXXXXXX",
"XXXXXX  X   XXXXXXXXX",
"XXXXXX XXX   XXXXXXXX",
"XXXXXXXXXX   XXXXXXXX",
"XXXXXXXXXXX   XXXXXXX",
"XXXXXXXXXXXX  XXXXXXX",
"XXXXXXXXXXXX   XXXXXX",
"XXXXXXXXXXXXX XXXXXXX",
"XXXXXXXXXXXXXXXXXXXXX",
"XXXXXXXXXXXXXXXXXXXXX"
};
