/* XPM */
static char * element_xpm[] = {
"21 21 5 1",
" 	c None",
".	c #7B7B7B",
"+	c #D6D6D6",
"@	c #000000",
"#	c #FFFFFF",
"                     ",
"                     ",
"                     ",
"...................  ",
".+++++++++++++++++.@ ",
".+.#..############.@ ",
".+.....###########.@ ",
".+################.@ ",
".+################.@ ",
".+################.@ ",
".+################.@ ",
".+################.@ ",
".+################.@ ",
".+++++++++########.@ ",
".+@+#+@@.+########.@ ",
".+@@.+@@.+########.@ ",
".+@+#+@@.+########.@ ",
"...................@ ",
" @@@@@@@@@@@@@@@@@@@ ",
"                     ",
"                     "};
