/* XPM */
static char * thread_xpm[] = {
"21 21 86 1",
" 	c None",
".	c #7B7B7B",
"+	c #D6D6D6",
"@	c #FFFFFF",
"#	c #CFCFCF",
"$	c #919195",
"%	c #929195",
"&	c #B2B2B3",
"*	c #E7E7E7",
"=	c #000000",
"-	c #D8D8D9",
";	c #3A3941",
">	c #D0CDDC",
",	c #C9C6D7",
"'	c #AFACBD",
")	c #898694",
"!	c #BAB9BC",
"~	c #6D6D70",
"{	c #44414F",
"]	c #A7A4B4",
"^	c #C5C2D4",
"/	c #BEBACE",
"(	c #B6B2C8",
"_	c #8D899B",
":	c #EFEFEF",
"<	c #706E7C",
"[	c #787485",
"}	c #6A6777",
"|	c #898696",
"1	c #AFABC1",
"2	c #A8A3BC",
"3	c #89888E",
"4	c #B7B6B7",
"5	c #8E899F",
"6	c #BFBCCF",
"7	c #8F8C99",
"8	c #565363",
"9	c #464350",
"0	c #595765",
"a	c #504D5A",
"b	c #B8B8B9",
"c	c #838288",
"d	c #A7A2BA",
"e	c #C8C4D6",
"f	c #9692A7",
"g	c #585465",
"h	c #2D2B35",
"i	c #2D2C31",
"j	c #5F5C69",
"k	c #AEAAC1",
"l	c #C7C4D6",
"m	c #B9B5CA",
"n	c #948FA7",
"o	c #5D596C",
"p	c #4E4B5C",
"q	c #9E9D9F",
"r	c #A7A6A9",
"s	c #9F9BAF",
"t	c #BBB7CC",
"u	c #A8A4BB",
"v	c #5D5A6A",
"w	c #575466",
"x	c #39383E",
"y	c #B9B9B9",
"z	c #A7A6AA",
"A	c #7D7A8C",
"B	c #9691AA",
"C	c #6E6980",
"D	c #383643",
"E	c #8C8C8D",
"F	c #F5F5F5",
"G	c #CCCCCD",
"H	c #3D3C41",
"I	c #67656D",
"J	c #908F91",
"K	c #838189",
"L	c #4A4853",
"M	c #706F76",
"N	c #44414D",
"O	c #18171B",
"P	c #4A4851",
"Q	c #5D5B68",
"R	c #3A393D",
"S	c #D7D7D8",
"T	c #828282",
"U	c #D3D3D3",
"                     ",
"                     ",
"                     ",
"...................  ",
".++++++++++@#$%&*@+= ",
".+.@..@@@@@-;>,')!@= ",
".+.....@@@@~{]^/(_#= ",
".+@@@@@@@@:<[}|(123= ",
".+@@@@@@@@4567890ab= ",
".+@@@@@@@@cdeefghi:= ",
".+@@@@@@@@jklmnopq+= ",
".+@@@@@@@@rstuvwx:y= ",
".+@@@@@@@@@zABCDEFy= ",
".+++++++++@G9HIJFF.= ",
".+=+@+==.+-KLFFFF@.= ",
".+==.+==.+MNOFF@@@.= ",
".+=+@+==.+PQRF@@@@.= ",
".........+STUy.....= ",
" =================== ",
"                     ",
"                     "};
