<?xml version="1.0" encoding="UTF-8" standalone="no"?>
<!-- Generator: Adobe Illustrator 12.0.0, SVG Export Plug-In . SVG Version: 6.00 Build 51448)  -->

<svg
   xmlns:dc="http://purl.org/dc/elements/1.1/"
   xmlns:cc="http://creativecommons.org/ns#"
   xmlns:rdf="http://www.w3.org/1999/02/22-rdf-syntax-ns#"
   xmlns:svg="http://www.w3.org/2000/svg"
   xmlns="http://www.w3.org/2000/svg"
   xmlns:sodipodi="http://sodipodi.sourceforge.net/DTD/sodipodi-0.dtd"
   xmlns:inkscape="http://www.inkscape.org/namespaces/inkscape"
   version="1.1"
   id="Layer_1"
   width="0.85000002in"
   height="0.85000002in"
   viewBox="0 0 81.600002 81.600002"
   overflow="visible"
   enable-background="new 0 0 280.22 69.387"
   xml:space="preserve"
   sodipodi:docname="gstreamer-logo.svg"
   inkscape:version="0.92.1 r"
   style="overflow:visible"><metadata
     id="metadata31"><rdf:RDF><cc:Work
         rdf:about=""><dc:format>image/svg+xml</dc:format><dc:type
           rdf:resource="http://purl.org/dc/dcmitype/StillImage" /><dc:title></dc:title></cc:Work></rdf:RDF></metadata><defs
     id="defs29" /><sodipodi:namedview
     pagecolor="#ffffff"
     bordercolor="#666666"
     borderopacity="1"
     objecttolerance="10"
     gridtolerance="10"
     guidetolerance="10"
     inkscape:pageopacity="0"
     inkscape:pageshadow="2"
     inkscape:window-width="1920"
     inkscape:window-height="1043"
     id="namedview27"
     showgrid="false"
     inkscape:zoom="4.4536435"
     inkscape:cx="69.629821"
     inkscape:cy="30.695002"
     inkscape:window-x="0"
     inkscape:window-y="0"
     inkscape:window-maximized="1"
     inkscape:current-layer="Layer_1"
     units="cm" /><path
     d="m 43.280314,25.82336 c -4.759918,0 -11.724236,-3.53072 -18.511674,-3.53072 -6.787438,0 -10.841597,3.53072 -11.547357,4.01222 -0.704879,0.4815 -1.146639,2.32657 0.96976,1.76496 2.116399,-0.56162 3.878159,-0.56162 7.228318,-0.56162 3.350159,0 11.371356,4.17325 19.481434,4.17325 8.110077,0 14.896635,-5.69706 16.395275,-7.70397 1.498639,-2.00691 0.088,-2.64864 -1.05776,-2.16634 -1.146639,0.4815 -8.550077,4.01222 -12.957996,4.01222 z"
     id="path20"
     inkscape:connector-curvature="0"
     style="fill:#ff3131;stroke-width:0.83965582" /><path
     d="m 63.958548,36.8169 c -5.001039,0 -12.317356,-3.52992 -19.447994,-3.52992 -7.130638,0 -11.390717,3.52992 -12.131676,4.01222 -0.74096,0.4823 -1.20472,2.32657 1.018159,1.76496 2.22288,-0.56162 4.074399,-0.56162 7.593518,-0.56162 3.519119,0 11.946876,4.17325 20.466154,4.17325 8.519277,0 15.650795,-5.69706 17.225114,-7.70317 1.57432,-2.00691 0.0924,-2.64944 -1.111439,-2.16714 -1.20384,0.4823 -8.981278,4.01142 -13.611836,4.01142 z"
     id="path22"
     inkscape:connector-curvature="0"
     style="fill:#319831;stroke-width:0.83965582" /><path
     d="m 35.179917,48.94808 c -5.185839,0 -12.773196,-3.81432 -20.167834,-3.81432 -7.3946378,0 -11.8131164,3.81432 -12.5813562,4.33428 -0.7682397,0.51995 -1.2487196,2.51324 1.0559997,1.90596 2.3055993,-0.60648 4.2257587,-0.60648 7.8751175,-0.60648 3.649359,0 12.389516,4.50734 21.225593,4.50734 8.835198,0 16.229835,-6.15372 17.863115,-8.32087 1.633279,-2.16714 0.09592,-2.86014 -1.1528,-2.34019 -1.248719,0.51996 -9.315677,4.33428 -14.117835,4.33428 z"
     id="path24"
     inkscape:connector-curvature="0"
     style="fill:#3232cc;stroke-width:0.83965582" /></svg>