<?xml version="1.0" encoding="UTF-8" standalone="no"?>
<!DOCTYPE svg PUBLIC "-//W3C//DTD SVG 1.1//EN"
 "http://www.w3.org/Graphics/SVG/1.1/DTD/svg11.dtd">
<!-- Generated by graphviz version 2.40.1 (20161225.0304)
 -->
<!-- Title: pipeline Pages: 1 -->
<svg width="707pt" height="632pt"
 viewBox="0.00 0.00 707.00 632.00" xmlns="http://www.w3.org/2000/svg" xmlns:xlink="http://www.w3.org/1999/xlink">
<g id="graph0" class="graph" transform="scale(1 1) rotate(0) translate(4 628)">
<title>pipeline</title>
<polygon fill="#ffffff" stroke="transparent" points="-4,4 -4,-628 703,-628 703,4 -4,4"/>
<!-- application -->
<g id="node1" class="node">
<title>application</title>
<polygon fill="#ffdddd" stroke="#000000" points="577,-624 511,-624 511,-588 577,-588 577,-624"/>
<text text-anchor="middle" x="544" y="-603.8" font-family="Bitstream Vera Sans" font-size="9.00" fill="#000000">application</text>
</g>
<!-- bus -->
<g id="node3" class="node">
<title>bus</title>
<g id="a_node3"><a xlink:href="GstBus.html" xlink:title="bus" target="_top">
<polygon fill="#eeeeee" stroke="#000000" points="122,-464 68,-464 68,-428 122,-428 122,-464"/>
<text text-anchor="middle" x="95" y="-443.8" font-family="Bitstream Vera Sans" font-size="9.00" fill="#000000">bus</text>
</a>
</g>
</g>
<!-- application&#45;&gt;bus -->
<g id="edge24" class="edge">
<title>application&#45;&gt;bus</title>
<path fill="none" stroke="#000000" d="M510.9115,-603.0792C430.1757,-595.561 225.2233,-574.007 164,-544 132.3738,-528.4992 123.8974,-520.3344 106,-490 103.0991,-485.0833 100.9591,-479.4225 99.3816,-473.8334"/>
<polygon fill="#000000" stroke="#000000" points="102.776,-472.9771 97.1069,-464.0266 95.957,-474.5588 102.776,-472.9771"/>
<text text-anchor="middle" x="180" y="-524.4" font-family="Bitstream Vera Sans" font-size="7.00" fill="#000000">listen on</text>
</g>
<!-- event -->
<g id="node9" class="node">
<title>event</title>
<g id="a_node9"><a xlink:href="gstreamer-GstEvent.html" xlink:title="event" target="_top">
<polygon fill="#ddffdd" stroke="#000000" points="585,-304 531,-304 531,-268 585,-268 585,-304"/>
<text text-anchor="middle" x="558" y="-283.8" font-family="Bitstream Vera Sans" font-size="9.00" fill="#000000">event</text>
</a>
</g>
</g>
<!-- application&#45;&gt;event -->
<g id="edge26" class="edge">
<title>application&#45;&gt;event</title>
<path fill="none" stroke="#000000" d="M577.281,-590.2893C600.3723,-576.8307 627,-555.0196 627,-526 627,-526 627,-526 627,-366 627,-345.4784 625.4135,-338.3413 613,-322 607.7902,-315.1417 600.8722,-309.1985 593.7059,-304.2267"/>
<polygon fill="#000000" stroke="#000000" points="595.5792,-301.2702 585.2668,-298.84 591.8129,-307.1707 595.5792,-301.2702"/>
<text text-anchor="middle" x="636" y="-444.4" font-family="Bitstream Vera Sans" font-size="7.00" fill="#000000">send</text>
</g>
<!-- pipeline -->
<g id="node13" class="node">
<title>pipeline</title>
<g id="a_node13"><a xlink:href="GstPipeline.html" xlink:title="pipeline" target="_top">
<polygon fill="#ccccff" stroke="#000000" points="259,-544 205,-544 205,-508 259,-508 259,-544"/>
<text text-anchor="middle" x="232" y="-523.8" font-family="Bitstream Vera Sans" font-size="9.00" fill="#000000">pipeline</text>
</a>
</g>
</g>
<!-- application&#45;&gt;pipeline -->
<g id="edge23" class="edge">
<title>application&#45;&gt;pipeline</title>
<path fill="none" stroke="#000000" d="M510.9059,-597.5143C452.3458,-582.4989 330.8592,-551.3485 269.3763,-535.5837"/>
<polygon fill="#000000" stroke="#000000" points="269.8879,-532.1017 259.3319,-533.0082 268.1492,-538.8823 269.8879,-532.1017"/>
<text text-anchor="middle" x="404.5" y="-564.4" font-family="Bitstream Vera Sans" font-size="7.00" fill="#000000">has</text>
</g>
<!-- query -->
<g id="node16" class="node">
<title>query</title>
<g id="a_node16"><a xlink:href="gstreamer-GstQuery.html" xlink:title="query" target="_top">
<polygon fill="#ddffdd" stroke="#000000" points="677,-304 623,-304 623,-268 677,-268 677,-304"/>
<text text-anchor="middle" x="650" y="-283.8" font-family="Bitstream Vera Sans" font-size="9.00" fill="#000000">query</text>
</a>
</g>
</g>
<!-- application&#45;&gt;query -->
<g id="edge25" class="edge">
<title>application&#45;&gt;query</title>
<path fill="none" stroke="#000000" d="M577.1639,-601.3855C617.7094,-593.6598 681,-573.9247 681,-526 681,-526 681,-526 681,-366 681,-347.6719 673.8382,-328.4806 666.3992,-313.4901"/>
<polygon fill="#000000" stroke="#000000" points="669.3088,-311.5046 661.5433,-304.2972 663.1192,-314.7742 669.3088,-311.5046"/>
<text text-anchor="middle" x="690" y="-444.4" font-family="Bitstream Vera Sans" font-size="7.00" fill="#000000">send</text>
</g>
<!-- bin -->
<g id="node2" class="node">
<title>bin</title>
<g id="a_node2"><a xlink:href="GstBin.html" xlink:title="bin" target="_top">
<polygon fill="#ccccff" stroke="#000000" points="343,-464 289,-464 289,-428 343,-428 343,-464"/>
<text text-anchor="middle" x="316" y="-443.8" font-family="Bitstream Vera Sans" font-size="9.00" fill="#000000">bin</text>
</a>
</g>
</g>
<!-- element -->
<g id="node7" class="node">
<title>element</title>
<g id="a_node7"><a xlink:href="GstElement.html" xlink:title="element" target="_top">
<polygon fill="#ccccff" stroke="#000000" points="379,-384 325,-384 325,-348 379,-348 379,-384"/>
<text text-anchor="middle" x="352" y="-363.8" font-family="Bitstream Vera Sans" font-size="9.00" fill="#000000">element</text>
</a>
</g>
</g>
<!-- bin&#45;&gt;element -->
<g id="edge1" class="edge">
<title>bin&#45;&gt;element</title>
<path fill="none" stroke="#000000" d="M313.4728,-427.8198C313.0652,-419.637 313.6319,-410.0331 317,-402 318.4683,-398.498 320.4504,-395.1455 322.7289,-391.9929"/>
<polygon fill="#000000" stroke="#000000" points="325.5616,-394.0618 329.3031,-384.1495 320.1969,-389.5651 325.5616,-394.0618"/>
<text text-anchor="middle" x="323.5" y="-404.4" font-family="Bitstream Vera Sans" font-size="7.00" fill="#000000">is&#45;a</text>
</g>
<!-- bin&#45;&gt;element -->
<g id="edge12" class="edge">
<title>bin&#45;&gt;element</title>
<path fill="none" stroke="#000000" d="M324.169,-427.8468C328.7718,-417.6183 334.6118,-404.6405 339.7523,-393.217"/>
<polygon fill="#000000" stroke="#000000" points="342.9514,-394.6369 343.8634,-384.0814 336.5679,-391.7643 342.9514,-394.6369"/>
<text text-anchor="middle" x="346" y="-404.4" font-family="Bitstream Vera Sans" font-size="7.00" fill="#000000">has n</text>
</g>
<!-- message -->
<g id="node10" class="node">
<title>message</title>
<g id="a_node10"><a xlink:href="gstreamer-GstMessage.html" xlink:title="message" target="_top">
<polygon fill="#ddffdd" stroke="#000000" points="128,-304 72,-304 72,-268 128,-268 128,-304"/>
<text text-anchor="middle" x="100" y="-283.8" font-family="Bitstream Vera Sans" font-size="9.00" fill="#000000">message</text>
</a>
</g>
</g>
<!-- bus&#45;&gt;message -->
<g id="edge19" class="edge">
<title>bus&#45;&gt;message</title>
<path fill="none" stroke="#000000" d="M95.5638,-427.957C96.4266,-400.3487 98.082,-347.3746 99.1086,-314.5255"/>
<polygon fill="#000000" stroke="#000000" points="102.6164,-314.327 99.4305,-304.2226 95.6198,-314.1083 102.6164,-314.327"/>
<text text-anchor="middle" x="111.5" y="-364.4" font-family="Bitstream Vera Sans" font-size="7.00" fill="#000000">receive</text>
</g>
<!-- buffer -->
<g id="node4" class="node">
<title>buffer</title>
<g id="a_node4"><a xlink:href="gstreamer-GstBuffer.html" xlink:title="buffer" target="_top">
<polygon fill="#ddffdd" stroke="#000000" points="521,-250 467,-250 467,-214 521,-214 521,-250"/>
<text text-anchor="middle" x="494" y="-229.8" font-family="Bitstream Vera Sans" font-size="9.00" fill="#000000">buffer</text>
</a>
</g>
</g>
<!-- caps -->
<g id="node5" class="node">
<title>caps</title>
<g id="a_node5"><a xlink:href="gstreamer-GstCaps.html" xlink:title="caps" target="_top">
<polygon fill="#eeeeee" stroke="#000000" points="472,-116 418,-116 418,-80 472,-80 472,-116"/>
<text text-anchor="middle" x="445" y="-95.8" font-family="Bitstream Vera Sans" font-size="9.00" fill="#000000">caps</text>
</a>
</g>
</g>
<!-- buffer&#45;&gt;caps -->
<g id="edge10" class="edge">
<title>buffer&#45;&gt;caps</title>
<path fill="none" stroke="#000000" d="M487.8971,-213.8918C482.9336,-199.2961 475.6823,-178.2673 469,-160 464.7467,-148.3727 463.4659,-145.5473 459,-134 457.9568,-131.3027 456.8678,-128.4926 455.7781,-125.6842"/>
<polygon fill="#000000" stroke="#000000" points="459.0195,-124.3625 452.1353,-116.309 452.4947,-126.8978 459.0195,-124.3625"/>
<text text-anchor="middle" x="492" y="-176.4" font-family="Bitstream Vera Sans" font-size="7.00" fill="#000000">has n</text>
</g>
<!-- structure -->
<g id="node18" class="node">
<title>structure</title>
<g id="a_node18"><a xlink:href="gstreamer-GstStructure.html" xlink:title="structure" target="_top">
<polygon fill="#eeeeee" stroke="#000000" points="474.5,-36 415.5,-36 415.5,0 474.5,0 474.5,-36"/>
<text text-anchor="middle" x="445" y="-15.8" font-family="Bitstream Vera Sans" font-size="9.00" fill="#000000">structure</text>
</a>
</g>
</g>
<!-- caps&#45;&gt;structure -->
<g id="edge11" class="edge">
<title>caps&#45;&gt;structure</title>
<path fill="none" stroke="#000000" d="M445,-79.8468C445,-69.9251 445,-57.4167 445,-46.2492"/>
<polygon fill="#000000" stroke="#000000" points="448.5001,-46.0814 445,-36.0814 441.5001,-46.0814 448.5001,-46.0814"/>
<text text-anchor="middle" x="455" y="-56.4" font-family="Bitstream Vera Sans" font-size="7.00" fill="#000000">has n</text>
</g>
<!-- clock -->
<g id="node6" class="node">
<title>clock</title>
<g id="a_node6"><a xlink:href="GstClock.html" xlink:title="clock" target="_top">
<polygon fill="#eeeeee" stroke="#000000" points="200,-304 146,-304 146,-268 200,-268 200,-304"/>
<text text-anchor="middle" x="173" y="-283.8" font-family="Bitstream Vera Sans" font-size="9.00" fill="#000000">clock</text>
</a>
</g>
</g>
<!-- element&#45;&gt;buffer -->
<g id="edge17" class="edge">
<title>element&#45;&gt;buffer</title>
<path fill="none" stroke="#000000" d="M379.0052,-348.1841C387.6581,-342.4256 397.2602,-335.9827 406,-330 422.585,-318.647 428.7615,-318.1851 443,-304 456.442,-290.6085 468.8159,-273.3197 478.0084,-259.0402"/>
<polygon fill="#000000" stroke="#000000" points="481.227,-260.4951 483.569,-250.1624 475.2946,-256.7794 481.227,-260.4951"/>
<text text-anchor="middle" x="446" y="-324.4" font-family="Bitstream Vera Sans" font-size="7.00" fill="#000000">send &amp; receive</text>
</g>
<!-- element&#45;&gt;clock -->
<g id="edge7" class="edge">
<title>element&#45;&gt;clock</title>
<path fill="none" stroke="#000000" d="M324.9778,-361.1851C299.2847,-355.9049 260.0596,-345.9868 229,-330 218.9195,-324.8114 208.8758,-317.6948 200.1358,-310.6969"/>
<polygon fill="#000000" stroke="#000000" points="202.1225,-307.7968 192.197,-304.0908 197.6451,-313.1776 202.1225,-307.7968"/>
<text text-anchor="middle" x="251.5" y="-324.4" font-family="Bitstream Vera Sans" font-size="7.00" fill="#000000">may provide</text>
</g>
<!-- element_factory -->
<g id="node8" class="node">
<title>element_factory</title>
<g id="a_node8"><a xlink:href="GstElementFactory.html" xlink:title="element factory" target="_top">
<polygon fill="#eeeeee" stroke="#000000" points="306,-304 218,-304 218,-268 306,-268 306,-304"/>
<text text-anchor="middle" x="262" y="-283.8" font-family="Bitstream Vera Sans" font-size="9.00" fill="#000000">element factory</text>
</a>
</g>
</g>
<!-- element&#45;&gt;element_factory -->
<g id="edge14" class="edge">
<title>element&#45;&gt;element_factory</title>
<path fill="none" stroke="#000000" d="M324.8244,-356.6294C310.9201,-350.7366 294.5406,-341.9588 283,-330 278.4484,-325.2835 274.729,-319.3944 271.7547,-313.4736"/>
<polygon fill="#000000" stroke="#000000" points="274.9408,-312.0246 267.6816,-304.3075 268.5439,-314.8672 274.9408,-312.0246"/>
<text text-anchor="middle" x="310.5" y="-324.4" font-family="Bitstream Vera Sans" font-size="7.00" fill="#000000">is created from</text>
</g>
<!-- element&#45;&gt;event -->
<g id="edge16" class="edge">
<title>element&#45;&gt;event</title>
<path fill="none" stroke="#000000" d="M379.0347,-360.7461C406.0174,-355.003 448.3405,-344.6282 483,-330 496.4301,-324.3318 510.3994,-316.6794 522.5904,-309.3462"/>
<polygon fill="#000000" stroke="#000000" points="524.4387,-312.3185 531.1199,-304.0958 520.7692,-306.3573 524.4387,-312.3185"/>
<text text-anchor="middle" x="526" y="-324.4" font-family="Bitstream Vera Sans" font-size="7.00" fill="#000000">send &amp; receive</text>
</g>
<!-- element&#45;&gt;message -->
<g id="edge18" class="edge">
<title>element&#45;&gt;message</title>
<path fill="none" stroke="#000000" d="M324.9822,-361.5785C293.1497,-355.9741 238.9085,-345.1811 194,-330 170.198,-321.9538 163.449,-316.9228 137.4211,-304.2336"/>
<polygon fill="#000000" stroke="#000000" points="138.777,-301.0021 128.2471,-299.8311 135.7484,-307.3131 138.777,-301.0021"/>
<text text-anchor="middle" x="203" y="-324.4" font-family="Bitstream Vera Sans" font-size="7.00" fill="#000000">send</text>
</g>
<!-- pad -->
<g id="node11" class="node">
<title>pad</title>
<g id="a_node11"><a xlink:href="GstPad.html" xlink:title="pad" target="_top">
<polygon fill="#ccccff" stroke="#000000" points="434,-304 380,-304 380,-268 434,-268 434,-304"/>
<text text-anchor="middle" x="407" y="-283.8" font-family="Bitstream Vera Sans" font-size="9.00" fill="#000000">pad</text>
</a>
</g>
</g>
<!-- element&#45;&gt;pad -->
<g id="edge6" class="edge">
<title>element&#45;&gt;pad</title>
<path fill="none" stroke="#000000" d="M364.4804,-347.8468C371.6531,-337.4137 380.7923,-324.1203 388.7582,-312.5335"/>
<polygon fill="#000000" stroke="#000000" points="391.7879,-314.3047 394.569,-304.0814 386.0196,-310.339 391.7879,-314.3047"/>
<text text-anchor="middle" x="392" y="-324.4" font-family="Bitstream Vera Sans" font-size="7.00" fill="#000000">has n</text>
</g>
<!-- pad_template -->
<g id="node12" class="node">
<title>pad_template</title>
<g id="a_node12"><a xlink:href="GstPadTemplate.html" xlink:title="pad template" target="_top">
<polygon fill="#eeeeee" stroke="#000000" points="408.5,-196 331.5,-196 331.5,-160 408.5,-160 408.5,-196"/>
<text text-anchor="middle" x="370" y="-175.8" font-family="Bitstream Vera Sans" font-size="9.00" fill="#000000">pad template</text>
</a>
</g>
</g>
<!-- element&#45;&gt;pad_template -->
<g id="edge5" class="edge">
<title>element&#45;&gt;pad_template</title>
<path fill="none" stroke="#000000" d="M351.6297,-347.8244C351.397,-335.4673 351.1189,-318.748 351,-304 350.871,-288.0005 349.3386,-283.9135 351,-268 353.1835,-247.0865 358.1473,-223.877 362.4537,-206.266"/>
<polygon fill="#000000" stroke="#000000" points="365.9671,-206.6471 365.0193,-196.0948 359.1797,-204.935 365.9671,-206.6471"/>
<text text-anchor="middle" x="361" y="-284.4" font-family="Bitstream Vera Sans" font-size="7.00" fill="#000000">has n</text>
</g>
<!-- element&#45;&gt;query -->
<g id="edge15" class="edge">
<title>element&#45;&gt;query</title>
<path fill="none" stroke="#000000" d="M379.0863,-363.5768C418.8478,-359.5008 495.0155,-349.7102 557,-330 576.3889,-323.8346 596.9357,-314.4447 613.7714,-305.9205"/>
<polygon fill="#000000" stroke="#000000" points="615.4351,-309.0005 622.7118,-301.2998 612.2211,-302.7819 615.4351,-309.0005"/>
<text text-anchor="middle" x="594" y="-324.4" font-family="Bitstream Vera Sans" font-size="7.00" fill="#000000">answers</text>
</g>
<!-- plugin_feature -->
<g id="node15" class="node">
<title>plugin_feature</title>
<g id="a_node15"><a xlink:href="GstPluginFeature.html" xlink:title="plugin feature" target="_top">
<polygon fill="#eeeeee" stroke="#000000" points="161,-196 81,-196 81,-160 161,-160 161,-196"/>
<text text-anchor="middle" x="121" y="-175.8" font-family="Bitstream Vera Sans" font-size="9.00" fill="#000000">plugin feature</text>
</a>
</g>
</g>
<!-- element_factory&#45;&gt;plugin_feature -->
<g id="edge22" class="edge">
<title>element_factory&#45;&gt;plugin_feature</title>
<path fill="none" stroke="#000000" d="M238.3998,-267.9232C214.9138,-249.9339 178.719,-222.2103 152.7282,-202.3024"/>
<polygon fill="#000000" stroke="#000000" points="154.7443,-199.438 144.6772,-196.1357 150.4877,-204.9951 154.7443,-199.438"/>
<text text-anchor="middle" x="219.5" y="-230.4" font-family="Bitstream Vera Sans" font-size="7.00" fill="#000000">is&#45;a</text>
</g>
<!-- pad&#45;&gt;caps -->
<g id="edge8" class="edge">
<title>pad&#45;&gt;caps</title>
<path fill="none" stroke="#000000" d="M421.5944,-267.8888C425.2714,-262.4333 428.7961,-256.2319 431,-250 438.8006,-227.9426 442.5008,-164.0023 444.0459,-126.4479"/>
<polygon fill="#000000" stroke="#000000" points="447.5545,-126.2911 444.4424,-116.1637 440.5597,-126.0214 447.5545,-126.2911"/>
<text text-anchor="middle" x="453" y="-176.4" font-family="Bitstream Vera Sans" font-size="7.00" fill="#000000">has n</text>
</g>
<!-- pad&#45;&gt;pad_template -->
<g id="edge13" class="edge">
<title>pad&#45;&gt;pad_template</title>
<path fill="none" stroke="#000000" d="M387.4506,-267.737C382.9375,-262.4616 378.679,-256.3893 376,-250 370.2976,-236.3999 368.5674,-220.1056 368.3637,-206.4602"/>
<polygon fill="#000000" stroke="#000000" points="371.8665,-206.2262 368.4808,-196.1869 364.8669,-206.1464 371.8665,-206.2262"/>
<text text-anchor="middle" x="403.5" y="-230.4" font-family="Bitstream Vera Sans" font-size="7.00" fill="#000000">is created from</text>
</g>
<!-- pad_template&#45;&gt;caps -->
<g id="edge9" class="edge">
<title>pad_template&#45;&gt;caps</title>
<path fill="none" stroke="#000000" d="M386.7291,-159.9921C394.1513,-152.0167 402.9991,-142.5287 411,-134 414.1284,-130.6653 417.4244,-127.1622 420.6835,-123.7048"/>
<polygon fill="#000000" stroke="#000000" points="423.3614,-125.9667 427.6795,-116.2917 418.2705,-121.1622 423.3614,-125.9667"/>
<text text-anchor="middle" x="421" y="-136.4" font-family="Bitstream Vera Sans" font-size="7.00" fill="#000000">has n</text>
</g>
<!-- pipeline&#45;&gt;bin -->
<g id="edge2" class="edge">
<title>pipeline&#45;&gt;bin</title>
<path fill="none" stroke="#000000" d="M251.0609,-507.8468C262.4452,-497.0045 277.0731,-483.0732 289.5625,-471.1785"/>
<polygon fill="#000000" stroke="#000000" points="292.1869,-473.5125 297.0145,-464.0814 287.3593,-468.4435 292.1869,-473.5125"/>
<text text-anchor="middle" x="283.5" y="-484.4" font-family="Bitstream Vera Sans" font-size="7.00" fill="#000000">is&#45;a</text>
</g>
<!-- pipeline&#45;&gt;bus -->
<g id="edge3" class="edge">
<title>pipeline&#45;&gt;bus</title>
<path fill="none" stroke="#000000" d="M204.6065,-523.7303C178.9936,-520.2926 141.0367,-511.6598 116,-490 110.959,-485.6389 107.0322,-479.7973 104.0111,-473.7986"/>
<polygon fill="#000000" stroke="#000000" points="107.1483,-472.2343 99.9793,-464.4332 100.7188,-475.0022 107.1483,-472.2343"/>
<text text-anchor="middle" x="126" y="-484.4" font-family="Bitstream Vera Sans" font-size="7.00" fill="#000000">has 1</text>
</g>
<!-- pipeline&#45;&gt;clock -->
<g id="edge4" class="edge">
<title>pipeline&#45;&gt;clock</title>
<path fill="none" stroke="#000000" d="M224.1619,-507.8066C209.9486,-473.7131 180.4285,-397.5454 170,-330 169.2231,-324.968 169.0522,-319.5812 169.225,-314.3635"/>
<polygon fill="#000000" stroke="#000000" points="172.7398,-314.2874 169.9782,-304.0589 165.7584,-313.7771 172.7398,-314.2874"/>
<text text-anchor="middle" x="199" y="-404.4" font-family="Bitstream Vera Sans" font-size="7.00" fill="#000000">has 1</text>
</g>
<!-- plugin -->
<g id="node14" class="node">
<title>plugin</title>
<g id="a_node14"><a xlink:href="GstPlugin.html" xlink:title="plugin" target="_top">
<polygon fill="#eeeeee" stroke="#000000" points="54,-304 0,-304 0,-268 54,-268 54,-304"/>
<text text-anchor="middle" x="27" y="-283.8" font-family="Bitstream Vera Sans" font-size="9.00" fill="#000000">plugin</text>
</a>
</g>
</g>
<!-- plugin&#45;&gt;plugin_feature -->
<g id="edge21" class="edge">
<title>plugin&#45;&gt;plugin_feature</title>
<path fill="none" stroke="#000000" d="M42.9458,-267.6793C58.2302,-250.1185 81.4452,-223.4459 98.5869,-203.7512"/>
<polygon fill="#000000" stroke="#000000" points="101.3645,-205.8911 105.2897,-196.0502 96.0843,-201.2954 101.3645,-205.8911"/>
<text text-anchor="middle" x="98" y="-230.4" font-family="Bitstream Vera Sans" font-size="7.00" fill="#000000">has n</text>
</g>
<!-- registry -->
<g id="node17" class="node">
<title>registry</title>
<g id="a_node17"><a xlink:href="GstRegistry.html" xlink:title="registry" target="_top">
<polygon fill="#eeeeee" stroke="#000000" points="54,-384 0,-384 0,-348 54,-348 54,-384"/>
<text text-anchor="middle" x="27" y="-363.8" font-family="Bitstream Vera Sans" font-size="9.00" fill="#000000">registry</text>
</a>
</g>
</g>
<!-- registry&#45;&gt;plugin -->
<g id="edge20" class="edge">
<title>registry&#45;&gt;plugin</title>
<path fill="none" stroke="#000000" d="M27,-347.8468C27,-337.9251 27,-325.4167 27,-314.2492"/>
<polygon fill="#000000" stroke="#000000" points="30.5001,-314.0814 27,-304.0814 23.5001,-314.0814 30.5001,-314.0814"/>
<text text-anchor="middle" x="37" y="-324.4" font-family="Bitstream Vera Sans" font-size="7.00" fill="#000000">has n</text>
</g>
</g>
</svg>
